<?xml version="1.0" encoding="utf-8"?>
<!-- Generator: Adobe Illustrator 28.0.0, SVG Export Plug-In . SVG Version: 6.00 Build 0)  -->
<svg version="1.1" id="Calque_1" xmlns="http://www.w3.org/2000/svg" xmlns:xlink="http://www.w3.org/1999/xlink" x="0px" y="0px"
	 width="20.3px" height="20.3px" viewBox="0 0 20.3 20.3" style="enable-background:new 0 0 20.3 20.3;" xml:space="preserve">
<path d="M10.2,0C4.5,0,0,4.5,0,10.2c0,5.6,4.5,10.2,10.2,10.2c5.6,0,10.2-4.5,10.2-10.2C20.3,4.5,15.8,0,10.2,0z M10.2,3.6
	c1.9,0,3.5,1.6,3.5,3.5c0,1.9-1.6,3.5-3.5,3.5c-1.9,0-3.5-1.6-3.5-3.5C6.6,5.2,8.2,3.6,10.2,3.6z M15.7,15.9c-3.1,3-8,3-11.2,0
	c-0.2-0.2-0.2-0.4-0.1-0.6c0.8-1.5,3.1-2.7,5.7-2.7c2.6,0,4.8,1.1,5.7,2.7C15.9,15.5,15.9,15.8,15.7,15.9z"/>
</svg>
