<svg width="17" height="16" viewBox="0 0 17 16" fill="none" xmlns="http://www.w3.org/2000/svg">
<path d="M11.1668 5.59998L5.2501 11.5333C5.11676 11.6666 4.95832 11.7333 4.77476 11.7333C4.59165 11.7333 4.43343 11.6666 4.3001 11.5333C4.16676 11.4 4.1001 11.2415 4.1001 11.058C4.1001 10.8749 4.16676 10.7166 4.3001 10.5833L10.2334 4.66665H5.16676C4.97788 4.66665 4.81943 4.60287 4.69143 4.47531C4.56388 4.34731 4.5001 4.18887 4.5001 3.99998C4.5001 3.81109 4.56388 3.65265 4.69143 3.52465C4.81943 3.39709 4.97788 3.33331 5.16676 3.33331H11.8334C12.0223 3.33331 12.1805 3.39709 12.3081 3.52465C12.4361 3.65265 12.5001 3.81109 12.5001 3.99998V10.6666C12.5001 10.8555 12.4361 11.0138 12.3081 11.1413C12.1805 11.2693 12.0223 11.3333 11.8334 11.3333C11.6445 11.3333 11.4863 11.2693 11.3588 11.1413C11.2308 11.0138 11.1668 10.8555 11.1668 10.6666V5.59998Z" fill="black"/>
</svg>
