<svg width="212" height="140" viewBox="0 0 212 140" fill="none" xmlns="http://www.w3.org/2000/svg">
<path d="M145.116 61.9835C144.799 61.9835 144.483 61.9288 144.219 61.874C143.428 61.7098 142.689 61.1075 142.267 60.2862C141.792 59.5196 141.634 58.534 141.898 57.6032C142.531 55.5225 143.058 53.3871 143.586 51.3612L143.639 51.2517C143.85 50.5399 144.324 49.9376 145.116 49.2806C145.643 48.952 146.223 48.733 146.909 48.733C147.173 48.733 147.437 48.733 147.7 48.7878H147.753C148.597 49.0615 149.388 49.6638 149.81 50.3756C150.232 51.2517 150.338 52.292 150.074 53.0586C149.494 55.3035 148.966 57.3842 148.333 59.4648C148.122 60.3409 147.595 60.998 146.804 61.5455C146.804 61.5455 146.751 61.5455 146.751 61.6003C146.223 61.8193 145.696 61.9835 145.116 61.9835Z" fill="black"/>
<path d="M146.856 49.2258C147.12 49.2258 147.331 49.2258 147.542 49.2806C148.28 49.4996 148.966 50.0471 149.283 50.6494C149.599 51.3065 149.705 52.2373 149.494 52.8943C148.966 55.0298 148.439 57.1652 147.753 59.3006C147.542 60.0671 147.12 60.6694 146.434 61.1075C146.012 61.3265 145.537 61.436 145.063 61.436C144.799 61.436 144.535 61.3812 144.271 61.3265C143.638 61.217 142.953 60.6694 142.636 59.9576C142.214 59.3006 142.109 58.4793 142.32 57.7127C142.953 55.5773 143.533 53.4419 144.06 51.3065C144.271 50.6494 144.799 50.0471 145.379 49.6091C145.854 49.3353 146.381 49.2258 146.856 49.2258ZM146.856 48.1307C146.065 48.1307 145.379 48.3497 144.799 48.733L144.746 48.7878C143.902 49.4996 143.375 50.2114 143.111 50.9779V51.0327L143.058 51.197C142.531 53.2229 142.003 55.3035 141.37 57.3842C141.37 57.3842 141.37 57.3842 141.37 57.4389C141.054 58.534 141.212 59.6291 141.792 60.5599C142.267 61.5455 143.164 62.2573 144.113 62.4216C144.43 62.5311 144.799 62.5858 145.168 62.5858C145.801 62.5858 146.434 62.4216 147.014 62.1478C147.067 62.1478 147.067 62.093 147.12 62.093C148.017 61.4907 148.544 60.7242 148.861 59.6839C149.494 57.6032 150.021 55.5773 150.601 53.2776C150.865 52.3468 150.76 51.197 150.338 50.2114C150.338 50.2114 150.338 50.1566 150.285 50.1566C149.81 49.2806 148.913 48.6235 147.911 48.295C147.858 48.295 147.858 48.295 147.806 48.295C147.436 48.1307 147.173 48.1307 146.856 48.1307Z" fill="black"/>
<path d="M9.12581 138.749C7.59606 138.749 6.27731 138.092 5.22231 136.833C2.63756 133.712 2.00456 127.196 3.32331 117.997C7.38506 91.2223 15.8778 63.0786 28.5906 34.3327C29.0653 33.2376 30.1731 32.5805 31.4391 32.5805C32.0721 32.5805 32.6523 32.7448 33.1798 33.0733C34.8151 34.0041 35.0788 36.1396 34.4458 37.6727C31.1753 45.1192 28.3268 52.1825 25.6893 59.3006C23.2628 66.1996 20.8891 73.5914 18.6208 81.3665C18.8846 81.3118 19.0956 81.257 19.3593 81.257C19.6231 81.257 19.8868 81.3118 20.1506 81.3665C23.7376 82.3521 27.3773 82.7901 31.1226 82.7901C35.2371 82.7901 39.3516 82.1878 43.4133 80.9833C45.7343 77.479 48.7938 74.5223 52.2226 72.3868C55.1766 70.6895 57.6031 69.8681 59.8713 69.8681C60.8208 69.8681 61.7176 70.0324 62.5616 70.3062C64.6188 70.9632 66.1486 72.4416 66.7816 74.4127C67.4673 76.5482 67.0981 79.0121 65.7266 81.038C61.5593 87.2252 54.0688 92.2626 45.7343 94.5623C46.0508 97.081 48.7411 97.4643 50.4291 97.4643C53.4358 97.4643 57.2866 96.2597 60.9263 94.179C67.9948 90.2367 74.9578 82.2974 75.4326 81.6951C77.7536 77.917 81.0768 74.6318 84.7166 72.3868C87.6706 70.6895 90.0971 69.8681 92.3653 69.8681C93.3148 69.8681 94.2116 70.0324 95.0556 70.3062C97.1128 70.9632 98.6426 72.4416 99.2756 74.4127C99.9613 76.5482 99.5921 79.0121 98.2206 81.038C94.0533 87.2252 86.5628 92.2626 78.2283 94.5623C78.5448 97.081 81.2351 97.4643 82.9231 97.4643C85.9298 97.4643 89.7806 96.2597 93.4203 94.179C99.9613 90.5105 106.872 83.0639 108.19 81.3665C108.296 81.257 108.401 81.0928 108.56 80.9833C108.612 80.7095 108.665 80.4905 108.718 80.2167C113.096 59.9029 117.211 46.7619 122.908 28.5287C124.596 23.1081 126.336 17.5231 128.341 11.0621C128.816 9.58377 130.029 8.7077 131.506 8.7077C132.666 8.7077 133.774 9.25524 134.354 10.1313C134.935 10.9526 135.04 11.9382 134.724 12.9785C132.825 19.2205 130.873 25.5172 128.921 31.6497C125.07 43.9147 121.114 56.5629 117.527 69.9229C115.417 78.0265 113.887 85.2541 112.885 92.0984C112.41 95.3289 112.727 97.6285 113.676 98.8331C114.257 99.4902 115.048 99.8187 116.05 99.8187C121.22 99.8187 130.662 91.6056 135.093 83.1734C135.198 83.0092 135.251 82.8996 135.357 82.7354C136.201 79.1216 137.256 75.5626 138.205 72.8796C138.785 71.3465 139.999 70.4157 141.37 70.4157C141.687 70.4157 141.95 70.4704 142.267 70.5252C143.164 70.8537 144.008 71.6203 144.43 72.5511C144.799 73.3177 144.852 74.139 144.588 74.8508C143.375 77.9718 140.526 86.0206 139.735 92.9197C139.207 96.7525 139.313 99.1069 140.051 100.038C140.262 100.311 140.579 100.476 141.001 100.476C142.003 100.476 143.533 99.6544 145.537 98.0666C149.124 94.7813 153.608 90.6747 156.351 85.0351C157.09 80.381 158.197 75.8911 159.041 72.4963C161.837 60.8337 165.741 49.6638 169.222 40.1366C162.998 40.7937 156.72 41.5602 150.812 42.272C150.707 42.272 150.654 42.272 150.601 42.272C148.808 42.272 147.384 40.3556 147.384 38.8225C147.384 36.9609 148.755 35.4825 150.707 35.373L171.912 32.8543C176.027 22.3962 179.825 13.3071 183.623 5.03917C184.098 3.99884 185.205 3.28703 186.524 3.28703C187.157 3.28703 187.79 3.4513 188.265 3.77982C189.795 4.60113 190.269 6.51753 189.425 8.37917C185.416 17.1398 182.251 24.6959 179.508 31.9782L206.886 28.8025C206.991 28.8025 207.097 28.8025 207.202 28.8025C208.943 28.8025 210.262 30.6641 210.262 32.3068C210.262 34.1136 208.996 35.4825 206.991 35.7563L176.713 39.2058C176.343 40.4104 175.816 41.7245 175.288 43.0386C171.912 52.292 168.062 63.2976 165.371 74.5223C164 80.1072 163.103 85.3088 162.576 90.401C161.732 96.5882 162.417 98.9426 163.156 99.8187C163.472 100.202 163.842 100.366 164.369 100.366C165.319 100.366 166.69 99.6544 168.325 98.3403C172.493 94.9456 176.976 89.6344 181.618 82.6259C182.146 81.8593 183.043 81.4213 184.098 81.4213C184.889 81.4213 185.68 81.6951 186.26 82.1878C187.843 83.3924 187.79 85.5826 186.788 86.9515C182.99 92.5911 176.607 100.64 171.543 104.801C168.325 107.539 165.688 108.853 163.42 108.853C163.05 108.853 162.681 108.798 162.312 108.744C160.255 108.415 158.356 106.882 157.195 104.637C156.246 102.885 155.665 100.585 155.454 97.738C153.555 99.983 151.551 102.009 149.494 103.651C148.28 104.582 144.06 107.594 140.051 107.594C137.414 107.594 135.462 106.225 134.302 103.706C133.299 101.461 133.194 98.2308 133.352 95.5479C127.655 101.571 119.426 108.141 113.465 108.141C111.672 108.141 110.195 107.539 109.087 106.334C107.294 104.473 106.45 101.133 106.502 96.4787C106.555 95.2193 106.608 93.8505 106.766 92.3174C101.966 96.5882 91.8906 104.418 82.7648 104.418C79.9691 104.418 77.4371 103.651 75.2743 102.228C72.4786 100.311 71.6346 97.1905 71.5291 94.5623C65.7793 99.2164 57.7086 104.418 50.1653 104.418C47.3696 104.418 44.8376 103.651 42.6748 102.228C38.2966 99.2712 38.7713 93.3029 39.1933 90.8938C39.2988 90.2367 39.4571 89.5249 39.6153 88.8679C36.8196 89.3606 34.0238 89.6344 31.2281 89.6344C29.6983 89.6344 28.1686 89.5797 26.6388 89.4154C26.9026 90.2367 27.0608 91.1128 27.2191 91.8793L27.2718 92.1531C27.8521 96.643 27.3246 100.969 26.7443 105.02C26.2168 108.963 25.2673 112.631 24.2651 116.519C24.0541 117.395 23.7903 118.271 23.5793 119.147C22.2606 124.677 19.9396 129.66 17.1438 133.274C14.6646 136.833 11.7633 138.749 9.12581 138.749ZM16.9856 87.3347C15.9306 91.1675 14.9283 95.1098 14.0316 99.0521C12.2908 106.389 10.9721 113.124 9.91706 119.585C8.65106 124.513 8.96756 129.057 10.0226 130.426C10.2863 130.81 10.5501 130.81 10.6028 130.81C10.9721 130.81 12.3963 130.372 14.7701 124.787C16.5636 120.68 18.0406 115.916 19.2538 110.167C20.3088 105.02 21.2056 100.421 21.1001 95.8216C20.9946 93.1387 20.5726 89.4154 17.6186 87.8823C17.3548 87.6633 17.1438 87.499 16.9856 87.3347ZM58.4471 77.0957C56.4953 77.698 54.2798 79.0669 52.4336 80.8737C50.6928 82.4069 49.2158 84.3233 47.9498 86.6777C49.9016 85.8564 51.7478 84.8708 53.4358 83.721C54.7018 82.8449 55.9151 81.8046 57.0756 80.819C57.2866 80.5452 57.6031 80.2714 57.9196 79.9977C58.8691 79.0669 59.8713 78.0813 60.3988 76.9862C60.2406 76.9862 60.0823 76.9314 59.8713 76.9314C59.3966 76.9862 58.9746 77.0409 58.4471 77.0957ZM90.9938 77.0957C89.0421 77.698 86.8266 79.0669 84.9803 80.8737C83.2396 82.4069 81.7626 84.2685 80.4966 86.6777C82.4483 85.8564 84.2946 84.8708 85.9826 83.721C87.2486 82.8449 88.4618 81.8046 89.6223 80.819C89.8333 80.5452 90.1498 80.2714 90.4663 79.9977C91.4158 79.0669 92.4181 78.0813 92.9456 76.9862C92.7873 76.9862 92.6291 76.9314 92.4181 76.9314C91.9961 76.9862 91.5213 77.0409 90.9938 77.0957Z" fill="black"/>
<path d="M186.735 3.94408C187.263 3.94408 187.79 4.10835 188.212 4.38212C189.636 5.14868 189.847 6.84606 189.162 8.32442C185.469 16.428 182.04 24.4769 178.875 32.7995L207.097 29.5691C207.202 29.5691 207.255 29.5691 207.36 29.5691C208.732 29.5691 209.892 31.1569 209.892 32.5258C209.892 34.2232 208.574 35.2087 207.097 35.4278L176.502 38.932C176.08 40.3009 175.552 41.7245 174.972 43.0933C171.174 53.4419 167.64 63.8452 165.002 74.6318C163.683 79.8882 162.734 85.1993 162.206 90.5652C161.151 98.3403 162.312 101.133 164.527 101.133C165.741 101.133 167.218 100.311 168.8 98.9974C173.759 94.9456 178.453 88.8679 182.199 83.1734C182.673 82.5164 183.465 82.1878 184.256 82.1878C184.942 82.1878 185.627 82.4069 186.102 82.8449C187.421 83.8305 187.421 85.6374 186.524 86.8967C183.043 92.0436 176.66 100.257 171.385 104.637C168.8 106.827 166.057 108.579 163.631 108.579C163.314 108.579 162.945 108.525 162.628 108.47C160.571 108.141 158.83 106.553 157.881 104.637C156.72 102.502 156.246 99.7092 156.14 96.5882C154.136 99.1616 151.867 101.516 149.388 103.487C147.173 105.185 143.48 107.32 140.262 107.32C138.1 107.32 136.148 106.389 134.987 103.706C133.985 101.516 133.827 98.0666 134.143 94.2885C128.288 100.804 119.532 107.813 113.624 107.813C109.773 107.813 107.083 104.801 107.188 96.7525C107.241 95.1098 107.346 93.1934 107.557 91.277C101.491 96.862 91.5741 104.144 82.9231 104.144C80.3911 104.144 77.9119 103.542 75.6964 102.009C72.9534 100.147 72.1094 96.862 72.2149 93.6862C66.1486 98.7236 57.8141 104.144 50.3236 104.144C47.7916 104.144 45.3124 103.542 43.0969 102.009C39.6154 99.6544 39.1934 95.0551 39.8264 91.2223C39.9846 90.2915 40.1956 89.3059 40.4594 88.3751C37.4526 88.9774 34.3931 89.2511 31.3336 89.2511C29.5401 89.2511 27.7466 89.1416 25.9531 88.9226C26.3751 90.0724 26.5861 91.277 26.7971 92.4269C27.3246 96.6977 26.9026 100.859 26.2696 105.13C25.6366 109.948 24.3179 114.438 23.1574 119.147C20.3089 130.864 13.8734 138.256 9.02036 138.256C4.69486 138.256 1.6881 132.288 3.7981 118.161C8.12361 89.3059 17.1966 61.217 29.0126 34.6064C29.4346 33.6756 30.3841 33.1828 31.3336 33.1828C31.8611 33.1828 32.3359 33.3471 32.7579 33.6209C34.1821 34.3874 34.3931 36.1943 33.8656 37.5632C30.7006 44.736 27.7994 51.9088 25.1091 59.2458C22.4189 66.9114 19.9396 74.7413 17.6186 82.6259C18.0934 82.1878 18.6209 81.9688 19.2539 81.9688C19.4649 81.9688 19.6759 82.0236 19.8869 82.0783C23.5266 83.0639 27.2719 83.5567 30.9644 83.5567C35.2371 83.5567 39.4571 82.8996 43.5716 81.6951C45.8399 78.1908 48.8994 75.1793 52.3281 73.0986C54.5436 71.8393 57.1284 70.6895 59.7131 70.6895C60.5571 70.6895 61.4011 70.799 62.2451 71.0727C66.4651 72.4416 67.6784 77.26 65.1464 80.9285C60.6099 87.6633 52.8029 92.2626 45.2596 94.2885C45.1541 94.398 45.1541 94.398 45.0486 94.398C45.1014 96.9715 47.2114 98.1761 50.2709 98.1761C53.2776 98.1761 57.1811 97.0262 61.0319 94.8361C67.4674 91.2223 74.0084 84.2137 75.6964 82.2426C78.0174 78.4646 81.2351 75.2888 84.8221 73.0986C87.0376 71.8393 89.6224 70.6895 92.2071 70.6895C93.0511 70.6895 93.8951 70.799 94.7391 71.0727C98.9591 72.4416 100.172 77.26 97.6404 80.9285C93.1039 87.6633 85.2969 92.2626 77.7536 94.2885C77.6481 94.398 77.6481 94.398 77.5426 94.398C77.5954 96.9715 79.7054 98.1761 82.7649 98.1761C85.7716 98.1761 89.6751 97.0262 93.5259 94.8361C100.331 91.0033 107.241 83.3924 108.454 81.9141C108.56 81.7498 108.718 81.5855 108.876 81.476C108.929 81.1475 109.034 80.8737 109.087 80.5452C114.731 54.3727 119.901 40.1366 128.657 11.3907C129.079 10.0218 130.187 9.4195 131.295 9.4195C132.983 9.4195 134.724 10.7884 134.038 12.9785C128.394 31.595 122.275 49.8281 116.841 69.9229C114.89 77.3147 113.254 84.7613 112.199 92.1531C111.355 98.1761 113.043 100.53 115.945 100.53C121.378 100.53 130.978 92.0984 135.462 83.6114C135.568 83.4472 135.673 83.2829 135.779 83.1734C136.675 79.2859 137.73 75.6721 138.627 73.2629C139.102 72.0583 140.051 71.1275 141.317 71.1275C141.581 71.1275 141.845 71.1822 142.109 71.237C143.427 71.675 144.588 73.3724 144.06 74.8508C142.636 78.5741 139.946 86.4039 139.207 93.0292C138.469 98.0118 138.785 101.133 140.948 101.133C142.056 101.133 143.638 100.366 145.801 98.6141C149.916 94.8361 154.136 90.8938 156.826 85.3636C157.564 80.7095 158.672 76.1649 159.516 72.8249C162.206 61.4907 166.004 50.4852 170.013 39.6986C163.631 40.3556 157.142 41.1769 150.76 41.9435C150.707 41.9435 150.654 41.9435 150.601 41.9435C149.177 41.9435 147.911 40.3009 147.911 39.0415C147.911 37.3441 149.23 36.2491 150.707 36.1396L172.229 33.5661C175.921 24.1484 179.825 14.6759 184.045 5.4772C184.731 4.43687 185.786 3.94408 186.735 3.94408ZM79.4416 87.6633C81.8154 86.7872 84.0836 85.6374 86.2464 84.159C87.5651 83.2829 88.7256 82.2426 89.9389 81.257C91.1521 79.9977 92.6291 78.7931 93.4204 77.2052C93.5259 76.9862 93.6314 76.6577 93.7369 76.5482C93.6314 76.5482 93.5259 76.5482 93.4204 76.5482C93.1566 76.4386 92.7874 76.4386 92.4181 76.4386C91.8906 76.4386 91.3631 76.4934 90.9411 76.5482C88.6729 77.2052 86.4046 78.7931 84.6639 80.4905C82.5011 82.4069 80.8659 84.7613 79.5999 87.3347C79.5471 87.4442 79.4416 87.5537 79.4416 87.6633ZM46.8421 87.6633C49.2159 86.7872 51.4841 85.6374 53.6469 84.159C54.9656 83.2829 56.1261 82.2426 57.3394 81.257C58.5526 79.9977 60.0296 78.7931 60.8209 77.2052C60.9264 76.9862 61.0319 76.6577 61.1374 76.5482C61.0319 76.5482 60.9264 76.5482 60.8209 76.5482C60.5571 76.4386 60.1879 76.4386 59.8186 76.4386C59.2911 76.4386 58.7636 76.4934 58.3416 76.5482C56.0734 77.2052 53.8051 78.7931 52.0644 80.4905C49.9016 82.4069 48.2664 84.7613 47.0004 87.3347C46.9476 87.4442 46.8421 87.5537 46.8421 87.6633ZM10.6029 131.302C11.7106 131.302 13.2931 129.55 15.2449 124.951C17.3021 120.242 18.7264 115.205 19.7814 110.222C20.7309 105.513 21.7331 100.585 21.6276 95.7669C21.5221 92.4816 20.8891 88.9226 17.8296 87.3347C17.3021 87.0062 16.9856 86.5682 16.7219 86.0754C15.5086 90.3462 14.4536 94.617 13.4514 98.8879C11.8161 105.732 10.4446 112.576 9.33686 119.421C7.91261 125.225 8.49286 131.302 10.6029 131.302ZM186.735 2.849C185.258 2.849 183.887 3.67031 183.359 4.92966C179.614 13.088 175.816 22.0677 171.807 32.471L150.918 34.9897C148.755 35.154 147.173 36.8514 147.173 38.9868C147.173 40.8484 148.808 42.9838 150.918 42.9838C150.971 42.9838 151.076 42.9838 151.129 42.9838H151.182C156.826 42.272 162.734 41.5602 168.695 40.9032C165.266 50.2114 161.468 61.1622 158.778 72.4963C157.934 75.8364 156.826 80.3262 156.087 84.9803C153.397 90.4557 148.966 94.5075 145.432 97.738C142.953 99.7092 141.739 99.983 141.265 99.983C140.948 99.983 140.843 99.8734 140.737 99.7639C140.368 99.3259 139.893 97.9023 140.579 93.1387C140.579 93.1387 140.579 93.1387 140.579 93.0839C141.37 86.2944 144.219 78.3003 145.379 75.1793C145.696 74.3032 145.643 73.3724 145.221 72.4416C144.746 71.4013 143.797 70.4704 142.794 70.1419H142.742C142.372 70.0324 142.056 69.9777 141.687 69.9777C140.051 69.9777 138.68 71.0727 137.994 72.8249C137.045 75.5078 135.99 79.0668 135.146 82.6259C135.04 82.7354 134.987 82.8996 134.882 83.0091C130.504 91.277 121.272 99.3807 116.261 99.3807C115.364 99.3807 114.731 99.1069 114.257 98.5593C113.624 97.7928 112.991 96.0954 113.571 92.2626C114.573 85.4731 116.05 78.2455 118.213 70.1419C121.8 56.7819 125.756 44.1337 129.607 31.9235C131.506 25.8458 133.51 19.4943 135.409 13.2523C135.779 12.0477 135.62 10.8431 134.935 9.91229C134.196 8.87196 132.93 8.26966 131.664 8.26966C129.923 8.26966 128.552 9.30999 128.024 11.0074C126.073 17.4684 124.279 23.0533 122.591 28.474C116.894 46.7071 112.78 59.9029 108.401 80.2714C108.349 80.4357 108.296 80.6547 108.296 80.819C108.19 80.9285 108.085 81.038 107.979 81.1475C106.661 82.7901 99.8559 90.1819 93.3676 93.7957C89.7806 95.8216 86.0354 97.0262 83.0814 97.0262C81.4461 97.0262 79.4944 96.6429 79.0196 95.0551C87.3014 92.7006 94.6864 87.6085 98.8009 81.476C100.225 79.3406 100.647 76.6577 99.9086 74.358C99.1701 72.1678 97.5876 70.5799 95.3194 69.8681C94.4226 69.5944 93.4731 69.4301 92.4709 69.4301C90.0971 69.4301 87.5651 70.2514 84.5584 72.0036C80.8131 74.3032 77.4371 77.6432 75.1161 81.476C74.4304 82.2426 67.6256 89.9629 60.7681 93.7957C57.1811 95.8216 53.4359 97.0262 50.4819 97.0262C48.8466 97.0262 46.8949 96.6429 46.4201 95.0551C54.7019 92.7006 62.0869 87.6085 66.2014 81.476C67.6256 79.3406 68.0476 76.6577 67.3091 74.358C66.5706 72.1678 64.9881 70.5799 62.7199 69.8681C61.8231 69.5944 60.8736 69.4301 59.8714 69.4301C57.4976 69.4301 54.9656 70.2514 51.9589 72.0036C48.4774 74.139 45.3651 77.0957 43.0441 80.6C39.0879 81.7498 35.0789 82.2973 31.0699 82.2973C27.4301 82.2973 23.7904 81.8046 20.2561 80.8737C19.9396 80.819 19.6231 80.7642 19.3594 80.7642C21.5749 73.3177 23.8431 66.1996 26.2169 59.5196C28.8544 52.4016 31.7029 45.3383 34.9734 37.9464C34.9734 37.9464 34.9734 37.9464 34.9734 37.8917C35.6591 36.1396 35.3954 33.6756 33.4436 32.5805C32.8634 32.1973 32.1776 32.033 31.4919 32.033C30.0149 32.033 28.7489 32.7995 28.1686 34.1137C15.4031 62.9144 6.85761 91.1128 2.84861 117.942C1.47711 127.251 2.16285 133.931 4.85311 137.216C6.01361 138.585 7.4906 139.351 9.12585 139.351C14.9811 139.351 21.5221 130.81 24.2651 119.421C24.4761 118.545 24.6871 117.669 24.9509 116.847C25.9531 112.96 26.9026 109.291 27.4301 105.294C28.0631 101.242 28.5379 96.8072 27.9576 92.3174V92.2626L27.9049 91.9888C27.7994 91.4413 27.6939 90.839 27.5356 90.2367C28.8016 90.3462 30.1204 90.401 31.4391 90.401C33.9711 90.401 36.5559 90.1819 39.1406 89.7987C39.0351 90.2367 38.9824 90.6747 38.8769 91.058C37.9801 96.3692 39.3516 100.695 42.5694 102.94C44.8376 104.473 47.4751 105.239 50.3764 105.239C54.5964 105.239 61.5594 103.597 71.2654 95.8764C71.6346 98.9974 72.9534 101.461 75.1161 102.94C77.3844 104.473 80.0219 105.239 82.9231 105.239C86.8266 105.239 94.8974 103.706 106.291 93.8505C106.239 94.8908 106.186 95.8216 106.133 96.6977C106.08 101.516 106.977 104.966 108.876 106.937C110.089 108.251 111.725 108.908 113.676 108.908C119.479 108.908 127.286 102.94 132.983 97.1357C132.93 100.092 133.299 102.447 134.038 104.144C135.251 106.937 137.414 108.36 140.262 108.36C144.43 108.36 148.755 105.294 150.021 104.309C151.867 102.83 153.608 101.133 155.296 99.2164C155.56 101.571 156.14 103.542 156.984 105.075C158.197 107.43 160.255 109.072 162.47 109.455C162.839 109.51 163.261 109.565 163.631 109.565C166.004 109.565 168.747 108.196 172.071 105.404C177.135 101.188 183.57 93.1387 187.421 87.4442C188.687 85.6374 188.423 83.1734 186.788 81.9141C186.102 81.3665 185.205 81.038 184.309 81.038C183.095 81.038 182.04 81.5308 181.407 82.4616C176.765 89.4701 172.334 94.6718 168.22 98.0666C166.163 99.7092 165.055 99.983 164.58 99.983C164.211 99.983 164 99.8734 163.789 99.5997C163.261 98.9426 162.47 96.9715 163.314 90.6747C163.314 90.6747 163.314 90.6747 163.314 90.62C163.842 85.5278 164.738 80.381 166.11 74.8508C168.8 63.6262 172.651 52.6753 176.027 43.4219C176.502 42.2173 176.976 41.0127 177.346 39.8628L207.308 36.4681C207.308 36.4681 207.308 36.4681 207.36 36.4681C209.576 36.1396 211.106 34.5517 211.106 32.471C211.106 30.5546 209.576 28.4192 207.519 28.4192C207.36 28.4192 207.255 28.4192 207.097 28.474L180.616 31.5402C183.306 24.5317 186.366 17.2494 190.217 8.81721C191.166 6.68179 190.586 4.49163 188.845 3.4513C188.159 3.06802 187.474 2.849 186.735 2.849ZM58.5526 77.6432C58.8691 77.5885 59.1329 77.5885 59.3966 77.5337C58.8691 78.2455 58.1834 78.9573 57.4976 79.6144C57.2339 79.8882 56.9174 80.1619 56.6536 80.4357C55.5459 81.3665 54.3854 82.4069 53.1194 83.2829C51.9061 84.1042 50.6401 84.816 49.2686 85.4731C50.3236 83.8305 51.4841 82.4616 52.7501 81.3118C52.7501 81.3118 52.7501 81.3118 52.8029 81.257C54.5436 79.5596 56.6536 78.1908 58.5526 77.6432ZM91.0994 77.6432C91.4159 77.5885 91.6796 77.5885 91.9434 77.5337C91.4159 78.2455 90.7301 78.9573 90.0444 79.6144C89.7806 79.8882 89.4641 80.1619 89.2004 80.4357C88.0926 81.3665 86.9321 82.4069 85.6661 83.2829C84.4529 84.1042 83.1869 84.816 81.8154 85.4731C82.8704 83.8305 84.0309 82.4616 85.2969 81.3118C85.2969 81.3118 85.2969 81.3118 85.3496 81.257C87.1431 79.5596 89.2531 78.1908 91.0994 77.6432ZM10.6029 130.207C10.6029 130.207 10.4974 130.153 10.4446 130.043C9.49511 128.784 9.2841 124.239 10.4446 119.749C10.4446 119.694 10.4446 119.694 10.4446 119.64C11.4469 113.233 12.8184 106.499 14.5591 99.1616C15.4031 95.4931 16.2999 91.8246 17.3021 88.2656C17.3021 88.2656 17.3021 88.2656 17.3549 88.2656L17.4076 88.3203C19.4649 89.4154 20.4671 91.7151 20.6254 95.8216C20.7309 100.366 19.8869 104.911 18.8319 110.058C17.5659 115.752 16.1416 120.516 14.3481 124.568C11.9216 130.043 10.6029 130.207 10.6029 130.207Z" fill="black"/>
<path d="M143.005 59.1363C142.689 59.1363 142.372 59.0816 142.109 59.0268C141.317 58.8625 140.579 58.2603 140.157 57.4389C139.682 56.6724 139.524 55.6868 139.788 54.756C140.421 52.6753 140.948 50.5399 141.476 48.514L141.528 48.3497C141.739 47.6379 142.214 47.0356 143.005 46.3786C143.533 46.0501 144.113 45.831 144.799 45.831C145.063 45.831 145.326 45.831 145.59 45.8858H145.643C146.487 46.1596 147.278 46.7619 147.7 47.4737C148.122 48.3497 148.228 49.3901 147.964 50.1566C147.384 52.4016 146.856 54.4822 146.223 56.5629C146.012 57.4389 145.485 58.096 144.693 58.6435C144.693 58.6435 144.641 58.6435 144.641 58.6983C144.06 59.0268 143.533 59.1363 143.005 59.1363Z" fill="#CEFF1B"/>
<path d="M144.746 46.4333C145.01 46.4333 145.221 46.4333 145.432 46.4881C146.17 46.7071 146.856 47.2547 147.173 47.857C147.489 48.514 147.595 49.4448 147.384 50.1019C146.856 52.2373 146.329 54.3727 145.643 56.5081C145.432 57.2747 145.01 57.877 144.324 58.315C143.902 58.534 143.427 58.6435 142.953 58.6435C142.689 58.6435 142.425 58.5888 142.161 58.534C141.528 58.4245 140.843 57.877 140.526 57.1652C140.104 56.5081 139.999 55.6868 140.21 54.9202C140.843 52.7848 141.423 50.6494 141.95 48.514C142.161 47.857 142.689 47.2547 143.269 46.8166C143.691 46.4881 144.219 46.4333 144.746 46.4333ZM144.746 45.3383C143.955 45.3383 143.269 45.5573 142.689 45.9406L142.636 45.9953C141.792 46.7071 141.265 47.4189 141.001 48.1855V48.2402L140.948 48.4045C140.421 50.4304 139.893 52.5111 139.26 54.5917C139.26 54.5917 139.26 54.5917 139.26 54.6465C138.944 55.7416 139.102 56.8366 139.682 57.7675C140.157 58.753 141.054 59.4648 142.003 59.6291C142.32 59.7386 142.689 59.7934 143.058 59.7934C143.691 59.7934 144.324 59.6291 144.904 59.3553C144.957 59.3553 144.957 59.3006 145.01 59.3006C145.907 58.6983 146.434 57.9317 146.751 56.8914C147.384 54.8107 147.911 52.7848 148.491 50.4852C148.755 49.5543 148.65 48.4045 148.228 47.4189C148.228 47.4189 148.228 47.3642 148.175 47.3642C147.7 46.4881 146.803 45.831 145.801 45.5025C145.748 45.5025 145.748 45.5025 145.696 45.5025C145.326 45.3383 145.01 45.3383 144.746 45.3383Z" fill="black"/>
<path d="M6.96305 135.956C5.4333 135.956 4.11455 135.299 3.05955 134.04C0.527554 130.919 -0.158196 124.403 1.2133 115.205C5.2223 88.4298 13.7151 60.2862 26.4806 31.5402C26.9553 30.4451 28.0631 29.7881 29.3291 29.7881C29.9621 29.7881 30.5423 29.9523 31.0698 30.2809C32.7051 31.2117 32.9688 33.3471 32.3358 34.8802C29.0653 42.3268 26.2168 49.3901 23.5793 56.5081C21.1528 63.4072 18.7791 70.799 16.5108 78.5741C16.7746 78.5193 16.9856 78.4646 17.2493 78.4646C17.5131 78.4646 17.7768 78.5193 18.0406 78.5741C21.6276 79.5596 25.2673 79.9977 29.0126 79.9977C33.1271 79.9977 37.2416 79.3954 41.3033 78.1908C43.6243 74.6865 46.6838 71.7298 50.1125 69.5944C53.0665 67.897 55.493 67.0757 57.7613 67.0757C58.7108 67.0757 59.6075 67.2399 60.4515 67.5137C62.5088 68.1708 64.0385 69.6491 64.6715 71.6203C65.3573 73.7557 64.988 76.2196 63.6165 78.2455C59.4493 84.4328 51.9588 89.4702 43.6243 91.7698C43.9408 94.2885 46.631 94.6718 48.319 94.6718C51.3258 94.6718 55.1765 93.4672 58.8163 91.3866C65.8848 87.4443 72.8478 79.5049 73.3226 78.9026C75.6436 75.1246 78.9668 71.8393 82.6066 69.5944C85.5606 67.897 87.9871 67.0757 90.2553 67.0757C91.2048 67.0757 92.1015 67.2399 92.9455 67.5137C95.0028 68.1708 96.5325 69.6491 97.1655 71.6203C97.8513 73.7557 97.482 76.2196 96.1105 78.2455C91.9433 84.4328 84.4528 89.4702 76.1183 91.7698C76.4348 94.2885 79.1251 94.6718 80.8131 94.6718C83.8198 94.6718 87.6706 93.4672 91.3103 91.3866C97.8513 87.718 104.762 80.2714 106.08 78.5741C106.186 78.4646 106.291 78.3003 106.45 78.1908C106.502 77.917 106.555 77.698 106.608 77.4242C110.986 57.1104 115.101 43.9694 120.798 25.7363C122.486 20.3156 124.226 14.7307 126.231 8.26966C126.706 6.7913 127.919 5.91523 129.396 5.91523C130.556 5.91523 131.664 6.46277 132.244 7.33884C132.825 8.16016 132.93 9.14573 132.614 10.1861C130.715 16.428 128.763 22.7248 126.811 28.8025C122.96 41.0674 119.004 53.7157 115.417 67.0757C113.307 75.1793 111.777 82.4069 110.775 89.2511C110.3 92.4816 110.617 94.7813 111.566 95.9859C112.147 96.643 112.938 96.9715 113.94 96.9715C119.11 96.9715 128.552 88.7584 132.983 80.3262C133.088 80.1619 133.141 80.0524 133.247 79.8882C134.091 76.2744 135.146 72.7154 136.095 70.0324C136.675 68.4993 137.889 67.5685 139.26 67.5685C139.577 67.5685 139.84 67.6232 140.157 67.678C141.054 68.0065 141.898 68.7731 142.32 69.7039C142.689 70.4704 142.742 71.2918 142.478 72.0036C141.265 75.1246 138.416 83.1734 137.625 90.0725C137.097 93.9052 137.203 96.2597 137.941 97.1905C138.152 97.4643 138.469 97.6285 138.891 97.6285C139.893 97.6285 141.423 96.8072 143.427 95.2194C147.014 91.9341 151.498 87.8275 154.241 82.1878C154.98 77.5337 156.087 73.0439 156.931 69.6491C159.727 57.9865 163.631 46.8166 167.112 37.2894C160.888 37.9464 154.61 38.713 148.702 39.4248C148.597 39.4248 148.544 39.4248 148.491 39.4248C146.698 39.4248 145.274 37.5084 145.274 35.9753C145.274 34.1137 146.645 32.6353 148.597 32.5258L169.802 30.0071C173.864 19.549 177.715 10.4598 181.513 2.19195C181.988 1.15162 183.095 0.439812 184.414 0.439812C185.047 0.439812 185.68 0.604074 186.155 0.9326C187.685 1.75391 188.159 3.67031 187.315 5.53195C183.306 14.2926 180.141 21.8487 177.398 29.131L204.776 25.9553C204.881 25.9553 204.987 25.9553 205.092 25.9553C206.833 25.9553 208.152 27.8169 208.152 29.4595C208.152 31.2664 206.886 32.6353 204.881 32.9091L174.603 36.3586C174.233 37.5632 173.706 38.8773 173.178 40.1914C169.802 49.4448 165.952 60.4504 163.261 71.675C161.89 77.26 160.993 82.4616 160.466 87.5538C159.622 93.741 160.307 96.0954 161.046 96.9715C161.362 97.3548 161.732 97.519 162.259 97.519C163.209 97.519 164.58 96.8072 166.215 95.4931C170.383 92.0984 174.866 86.7872 179.508 79.7787C180.036 79.0121 180.933 78.5741 181.988 78.5741C182.779 78.5741 183.57 78.8478 184.15 79.3406C185.733 80.5452 185.68 82.7354 184.678 84.1042C180.88 89.7439 174.497 97.7928 169.433 101.954C166.215 104.692 163.578 106.006 161.31 106.006C160.94 106.006 160.571 105.951 160.202 105.896C158.145 105.568 156.246 104.035 155.085 101.79C154.136 100.038 153.555 97.738 153.344 94.8908C151.445 97.1357 149.441 99.1617 147.384 100.804C146.17 101.735 141.95 104.747 137.941 104.747C135.304 104.747 133.352 103.378 132.192 100.859C131.189 98.6141 131.084 95.3836 131.242 92.7007C125.545 98.7236 117.316 105.294 111.355 105.294C109.562 105.294 108.085 104.692 106.977 103.487C105.184 101.626 104.34 98.2856 104.392 93.6315C104.445 92.3721 104.498 91.0033 104.656 89.4702C99.8558 93.741 89.7805 101.571 80.6548 101.571C77.859 101.571 75.3271 100.804 73.1643 99.3807C70.3686 97.4643 69.5246 94.3433 69.4191 91.7151C63.6693 96.3692 55.5985 101.571 48.0553 101.571C45.2595 101.571 42.7276 100.804 40.5648 99.3807C36.1866 96.4239 36.6613 90.4557 37.0833 88.0465C37.1888 87.3895 37.347 86.6777 37.5053 86.0206C34.7095 86.5134 31.9138 86.7872 29.1181 86.7872C27.5883 86.7872 26.0586 86.7324 24.5288 86.5682C24.7926 87.3895 24.9508 88.2656 25.1091 89.0321L25.1618 89.3059C25.7421 93.7957 25.2146 98.1213 24.6343 102.173C24.1068 106.115 23.1573 109.784 22.1551 113.672C21.9441 114.548 21.6803 115.424 21.4693 116.3C20.1506 121.83 17.8296 126.813 15.0338 130.426C12.5018 134.04 9.60055 135.956 6.96305 135.956ZM14.8228 84.5423C13.7678 88.3751 12.7656 92.3174 11.8688 96.2597C10.1281 103.597 8.8093 110.332 7.7543 116.793C6.4883 121.72 6.8048 126.265 7.8598 127.634C8.12355 128.017 8.3873 128.017 8.44005 128.017C8.8093 128.017 10.2336 127.579 12.6073 121.994C14.4008 117.888 15.8778 113.124 17.0911 107.375C18.1461 102.228 19.0428 97.6285 18.9373 93.0292C18.8318 90.3462 18.4098 86.6229 15.4558 85.0898C15.2448 84.8708 15.0338 84.7065 14.8228 84.5423ZM56.2843 74.3032C54.3325 74.9055 52.1171 76.2744 50.2708 78.0813C48.5301 79.6144 47.0531 81.5308 45.7871 83.8852C47.7388 83.0639 49.585 82.0783 51.273 80.9285C52.539 80.0524 53.7523 79.0121 54.9128 78.0265C55.1238 77.7528 55.4403 77.479 55.7568 77.2052C56.7063 76.2744 57.7086 75.2888 58.2361 74.1937C58.0778 74.1937 57.9196 74.139 57.7086 74.139C57.2866 74.1937 56.8118 74.1937 56.2843 74.3032ZM88.831 74.3032C86.8793 74.9055 84.6638 76.2744 82.8176 78.0813C81.0768 79.6144 79.5998 81.476 78.3338 83.8852C80.2856 83.0639 82.1318 82.0783 83.8198 80.9285C85.1385 80.0524 86.3518 78.9573 87.4596 78.0265C87.6706 77.7528 87.987 77.479 88.3035 77.2052C89.253 76.2744 90.2553 75.2888 90.7828 74.1937C90.6246 74.1937 90.4663 74.139 90.2553 74.139C89.8333 74.1937 89.3585 74.1937 88.831 74.3032Z" fill="#CEFF1B"/>
<path d="M184.625 1.15162C185.153 1.15162 185.68 1.31588 186.102 1.58965C187.527 2.35621 187.738 4.05359 187.052 5.53195C183.359 13.6356 179.931 21.6844 176.766 30.0071L204.987 26.7766C205.092 26.7766 205.145 26.7766 205.251 26.7766C206.622 26.7766 207.783 28.3645 207.783 29.7333C207.783 31.4307 206.464 32.4163 204.987 32.6353L174.392 36.1396C173.97 37.5084 173.442 38.932 172.862 40.3009C169.064 50.6494 165.53 61.0527 162.892 71.8393C161.574 77.0957 160.624 82.4069 160.097 87.7728C159.042 95.5479 160.202 98.3403 162.418 98.3403C163.631 98.3403 165.108 97.519 166.69 96.2049C171.649 92.1531 176.344 86.0754 180.089 80.381C180.564 79.7239 181.355 79.3954 182.146 79.3954C182.832 79.3954 183.518 79.6144 183.992 80.0524C185.311 81.038 185.311 82.8449 184.414 84.1042C180.933 89.2511 174.55 97.4643 169.275 101.845C166.69 104.035 163.947 105.787 161.521 105.787C161.204 105.787 160.835 105.732 160.519 105.677C158.461 105.349 156.721 103.761 155.771 101.845C154.611 99.7092 154.136 96.9167 154.03 93.7957C152.026 96.3692 149.758 98.7236 147.278 100.695C145.063 102.392 141.37 104.528 138.153 104.528C135.99 104.528 134.038 103.597 132.878 100.914C131.875 98.7236 131.717 95.2741 132.034 91.4961C126.178 98.0118 117.422 105.02 111.514 105.02C107.663 105.02 104.973 102.009 105.078 93.96C105.131 92.3174 105.237 90.401 105.448 88.4846C99.3813 94.0695 89.4643 101.352 80.8133 101.352C78.2813 101.352 75.802 100.75 73.5865 99.2164C70.8435 97.3548 69.9995 94.0695 70.105 90.8938C64.0388 95.9312 55.7043 101.352 48.2138 101.352C45.6818 101.352 43.2025 100.75 40.987 99.2164C37.5055 96.862 37.0835 92.2626 37.7165 88.4298C37.8748 87.499 38.0858 86.5134 38.3495 85.5826C35.3428 86.1849 32.2833 86.4587 29.2238 86.4587C27.4303 86.4587 25.6368 86.3492 23.8433 86.1301C24.2653 87.28 24.4763 88.4846 24.6873 89.6344C25.2148 93.9053 24.7928 98.0666 24.1598 102.337C23.5268 107.156 22.208 111.646 21.0475 116.354C18.199 128.072 11.7635 135.464 6.91051 135.464C2.58501 135.464 -0.421743 129.495 1.68826 115.369C6.01376 86.5134 15.0868 58.4245 26.9028 31.814C27.3248 30.8832 28.2743 30.3904 29.2238 30.3904C29.7513 30.3904 30.226 30.5546 30.648 30.8284C32.0723 31.595 32.2833 33.4018 31.7558 34.7707C28.5908 41.9435 25.6895 49.1163 22.9993 56.4534C20.309 64.119 17.8298 71.9488 15.5088 79.8334C15.9835 79.3954 16.511 79.1764 17.144 79.1764C17.355 79.1764 17.566 79.2311 17.777 79.2859C21.4168 80.2714 25.162 80.7642 28.8545 80.7642C33.1273 80.7642 37.3473 80.1072 41.4618 78.9026C43.73 75.3983 46.7895 72.3868 50.2183 70.3062C52.4338 69.0468 55.0185 67.897 57.6033 67.897C58.4473 67.897 59.2913 68.0065 60.1353 68.2803C64.3553 69.6491 65.5685 74.4675 63.0365 78.136C58.5 84.8708 50.693 89.4702 43.1498 91.4961C43.0443 91.6056 43.0443 91.6056 42.9388 91.6056C42.9915 94.179 45.1015 95.3836 48.161 95.3836C51.1678 95.3836 55.0713 94.2338 58.922 92.0436C65.3575 88.4298 71.8985 81.4213 73.5865 79.4501C75.9075 75.6721 79.1253 72.4964 82.7123 70.3062C84.9278 69.0468 87.5125 67.897 90.0973 67.897C90.9413 67.897 91.7853 68.0065 92.6293 68.2803C96.8493 69.6491 98.0625 74.4675 95.5305 78.136C90.994 84.8708 83.187 89.4702 75.6438 91.4961C75.5383 91.6056 75.5383 91.6056 75.4328 91.6056C75.4855 94.179 77.5955 95.3836 80.655 95.3836C83.6618 95.3836 87.5653 94.2338 91.416 92.0436C98.2208 88.2108 105.131 80.6 106.344 79.1216C106.45 78.9573 106.608 78.7931 106.766 78.6836C106.819 78.3551 106.925 78.0813 106.977 77.7528C112.885 51.5255 118.055 37.2894 126.811 8.54344C127.233 7.17458 128.341 6.57228 129.449 6.57228C131.137 6.57228 132.878 7.94114 132.192 10.1313C126.548 28.7477 120.429 46.9809 114.995 67.0757C113.044 74.4675 111.408 81.9141 110.353 89.3059C109.509 95.3289 111.197 97.6833 114.099 97.6833C119.532 97.6833 129.132 89.2511 133.616 80.7642C133.722 80.6 133.827 80.4357 133.933 80.3262C134.829 76.4387 135.884 72.8249 136.781 70.4157C137.256 69.2111 138.205 68.2803 139.471 68.2803C139.735 68.2803 139.999 68.335 140.263 68.3898C141.581 68.8278 142.742 70.5252 142.214 72.0036C140.79 75.7268 138.1 83.5567 137.361 90.182C136.623 95.1646 136.939 98.2856 139.102 98.2856C140.21 98.2856 141.792 97.519 143.955 95.7669C148.07 91.9889 152.29 88.0466 154.98 82.5164C155.718 77.8623 156.826 73.3177 157.67 69.9777C160.36 58.6435 164.158 47.6379 168.167 36.8514C161.785 37.5084 155.296 38.3297 148.914 39.0963C148.861 39.0963 148.808 39.0963 148.755 39.0963C147.331 39.0963 146.065 37.4537 146.065 36.1943C146.065 34.4969 147.384 33.4018 148.861 33.2923L170.383 30.7189C174.075 21.3012 177.979 11.8287 182.199 2.62998C182.621 1.64441 183.623 1.15162 184.625 1.15162ZM77.279 84.8708C79.6528 83.9947 81.921 82.8449 84.0838 81.3665C85.4025 80.4905 86.563 79.4501 87.7763 78.4646C88.9895 77.2052 90.4665 76.0006 91.2578 74.4128C91.3633 74.1937 91.4688 73.8652 91.5743 73.7557C91.4688 73.7557 91.3633 73.7557 91.2578 73.7557C90.994 73.6462 90.6248 73.6462 90.2555 73.6462C89.728 73.6462 89.2005 73.7009 88.7785 73.7557C86.5103 74.4128 84.242 76.0006 82.5013 77.698C80.3385 79.6144 78.7033 81.9688 77.4373 84.5423C77.3845 84.6518 77.279 84.7613 77.279 84.8708ZM44.6795 84.8708C47.0533 83.9947 49.3215 82.8449 51.4843 81.3665C52.803 80.4905 53.9635 79.4501 55.1768 78.4646C56.39 77.2052 57.867 76.0006 58.6583 74.4128C58.7638 74.1937 58.8693 73.8652 58.9748 73.7557C58.8693 73.7557 58.7638 73.7557 58.6583 73.7557C58.3945 73.6462 58.0253 73.6462 57.656 73.6462C57.1285 73.6462 56.601 73.7009 56.179 73.7557C53.9108 74.4128 51.6425 76.0006 49.9018 77.698C47.739 79.6144 46.1038 81.9688 44.8378 84.5423C44.785 84.6518 44.6795 84.7613 44.6795 84.8708ZM8.44026 128.51C9.54801 128.51 11.1305 126.758 13.0823 122.158C15.1395 117.45 16.5638 112.412 17.6188 107.43C18.5683 102.721 19.5705 97.7928 19.465 92.9744C19.3595 89.6892 18.7265 86.1302 15.667 84.5423C15.1395 84.2138 14.823 83.7757 14.5593 83.2829C13.346 87.5538 12.291 91.8246 11.2888 96.0954C9.65351 102.94 8.28201 109.784 7.17426 116.628C5.80276 122.432 6.38301 128.51 8.44026 128.51ZM184.625 0.0565338C183.148 0.0565338 181.777 0.877847 181.249 2.13719C177.504 10.2956 173.706 19.2753 169.697 29.6786L148.755 32.1425C146.593 32.3068 145.01 34.0041 145.01 36.1396C145.01 38.0012 146.645 40.1366 148.755 40.1366C148.808 40.1366 148.914 40.1366 148.966 40.1366H149.019C154.663 39.4248 160.571 38.713 166.532 38.056C163.103 47.3642 159.305 58.315 156.615 69.6491C155.771 72.9891 154.663 77.479 153.925 82.1331C151.235 87.6085 146.804 91.6603 143.269 94.8908C140.79 96.862 139.577 97.1357 139.102 97.1357C138.786 97.1357 138.68 97.0262 138.575 96.9167C138.205 96.4787 137.731 95.0551 138.416 90.2915C138.416 90.2915 138.416 90.2915 138.416 90.2367C139.208 83.4472 142.056 75.4531 143.217 72.3321C143.533 71.456 143.48 70.5252 143.058 69.5944C142.584 68.554 141.634 67.6232 140.632 67.2947H140.579C140.21 67.1852 139.893 67.1304 139.524 67.1304C137.889 67.1304 136.517 68.2255 135.832 69.9777C134.882 72.6606 133.827 76.2196 132.983 79.7787C132.878 79.8882 132.825 80.0524 132.719 80.1619C128.341 88.4298 119.11 96.5334 114.099 96.5334C113.202 96.5334 112.569 96.2597 112.094 95.7121C111.461 94.9456 110.828 93.2482 111.408 89.4154C112.411 82.6259 113.888 75.3983 116.05 67.2947C119.637 53.9347 123.594 41.2865 127.444 29.0763C129.343 22.9985 131.348 16.6471 133.247 10.4051C133.616 9.20049 133.458 7.99589 132.772 7.06507C132.034 6.02474 130.768 5.42245 129.502 5.42245C127.761 5.42245 126.389 6.46278 125.862 8.16016C123.91 14.6212 122.117 20.2061 120.429 25.6268C114.732 43.8599 110.617 57.0557 106.239 77.4242C106.186 77.5885 106.133 77.8075 106.133 77.9718C106.028 78.0813 105.922 78.1908 105.817 78.3003C104.498 79.9429 97.6933 87.3347 91.205 90.9485C87.618 92.9744 83.8728 94.179 80.9188 94.179C79.2835 94.179 77.3318 93.7957 76.857 92.2079C85.1388 89.8534 92.5238 84.7613 96.6383 78.6288C98.0625 76.4934 98.4845 73.8105 97.746 71.5108C97.0075 69.3206 95.425 67.7327 93.1568 67.0209C92.26 66.7472 91.3105 66.5829 90.3083 66.5829C87.9345 66.5829 85.4025 67.4042 82.3958 69.1563C78.6505 71.456 75.2745 74.796 72.9535 78.6288C72.2678 79.3954 65.463 87.1157 58.6055 90.9485C55.0185 92.9744 51.2733 94.179 48.3193 94.179C46.684 94.179 44.7323 93.7957 44.2575 92.2079C52.5393 89.8534 59.9243 84.7613 64.0388 78.6288C65.463 76.4934 65.885 73.8105 65.1465 71.5108C64.408 69.3206 62.8255 67.7327 60.5573 67.0209C59.6605 66.7472 58.711 66.5829 57.7088 66.5829C55.335 66.5829 52.803 67.4042 49.7963 69.1563C46.3148 71.2918 43.2025 74.2485 40.8815 77.7528C36.9253 78.9026 32.9163 79.4501 28.9073 79.4501C25.2675 79.4501 21.6278 78.9573 18.0935 78.0265C17.777 77.9718 17.4605 77.917 17.1968 77.917C19.4123 70.4704 21.6805 63.3524 24.0543 56.6724C26.6918 49.5543 29.5403 42.491 32.8108 35.0992C32.8108 35.0992 32.8108 35.0992 32.8108 35.0445C33.4965 33.2923 33.2328 30.8284 31.281 29.7333C30.7008 29.35 30.015 29.1858 29.3293 29.1858C27.8523 29.1858 26.5863 29.9523 26.006 31.2664C13.2405 60.1219 4.74776 88.3203 0.686007 115.15C-0.685493 124.458 0.000257238 131.138 2.69051 134.423C3.85101 135.792 5.32801 136.559 6.96326 136.559C12.8185 136.559 19.3595 128.017 22.1025 116.628C22.3135 115.752 22.5245 114.876 22.7883 114.055C23.7905 110.167 24.74 106.499 25.2675 102.502C25.9005 98.4499 26.3753 94.0148 25.795 89.5249V89.4702L25.7423 89.1964C25.6368 88.6488 25.5313 88.0466 25.373 87.4443C26.639 87.5538 27.9578 87.6085 29.2765 87.6085C31.8085 87.6085 34.3933 87.3895 36.978 87.0062C36.8725 87.4443 36.8198 87.8823 36.7143 88.2656C35.8175 93.5767 37.189 97.9023 40.4068 100.147C42.675 101.68 45.3125 102.447 48.2138 102.447C52.4338 102.447 59.3968 100.804 69.1028 93.0839C69.472 96.2049 70.7908 98.6689 72.9535 100.147C75.2218 101.68 77.8593 102.447 80.7605 102.447C84.664 102.447 92.7348 100.914 104.129 91.058C104.076 92.0984 104.023 93.0292 103.971 93.9052C103.918 98.7236 104.815 102.173 106.714 104.144C107.927 105.458 109.562 106.115 111.514 106.115C117.316 106.115 125.123 100.147 130.82 94.3433C130.768 97.3 131.137 99.6544 131.875 101.352C133.089 104.144 135.251 105.568 138.1 105.568C142.267 105.568 146.593 102.502 147.859 101.516C149.705 100.038 151.446 98.3403 153.134 96.4239C153.397 98.7784 153.978 100.75 154.822 102.283C156.035 104.637 158.092 106.28 160.308 106.663C160.677 106.718 161.099 106.772 161.468 106.772C163.842 106.772 166.585 105.404 169.908 102.611C174.972 98.3951 181.408 90.3462 185.258 84.6518C186.524 82.8449 186.261 80.381 184.625 79.1216C183.94 78.5741 183.043 78.2455 182.146 78.2455C180.933 78.2455 179.878 78.7383 179.245 79.6692C174.603 86.6777 170.172 91.8793 166.057 95.2741C164 96.9167 162.892 97.1905 162.418 97.1905C162.048 97.1905 161.837 97.081 161.626 96.8072C161.099 96.1502 160.308 94.179 161.152 87.8823C161.152 87.8823 161.152 87.8823 161.152 87.8275C161.679 82.7354 162.576 77.5885 163.947 72.0583C166.638 60.8337 170.488 49.8829 173.864 40.6294C174.339 39.4248 174.814 38.2202 175.183 37.0704L205.145 33.6756C205.145 33.6756 205.145 33.6756 205.198 33.6756C207.413 33.3471 208.943 31.7592 208.943 29.6786C208.943 27.7622 207.413 25.6268 205.356 25.6268C205.198 25.6268 205.092 25.6267 204.934 25.6815L178.454 28.7477C181.144 21.7392 184.203 14.4569 188.054 6.02474C189.004 3.88933 188.423 1.69916 186.683 0.65883C186.05 0.275551 185.364 0.0565338 184.625 0.0565338ZM88.9895 74.8508C89.306 74.796 89.5698 74.796 89.8335 74.7413C89.306 75.4531 88.6203 76.1649 87.9345 76.8219C87.6708 77.0957 87.3543 77.3695 87.0905 77.6432C85.9828 78.5741 84.8223 79.6144 83.5563 80.4905C82.343 81.3118 81.077 82.0236 79.7055 82.6806C80.7605 81.038 81.921 79.6692 83.187 78.5193C83.187 78.5193 83.187 78.5193 83.2398 78.4646C84.9805 76.7124 87.0905 75.3983 88.9895 74.8508ZM56.39 74.8508C56.7065 74.796 56.9703 74.796 57.234 74.7413C56.7065 75.4531 56.0208 76.1649 55.335 76.8219C55.0713 77.0957 54.7548 77.3695 54.491 77.6432C53.3833 78.5741 52.2228 79.6144 50.9568 80.4905C49.7435 81.3118 48.4775 82.0236 47.106 82.6806C48.161 81.038 49.3215 79.6692 50.5875 78.5193C50.5875 78.5193 50.5875 78.5193 50.6403 78.4646C52.4338 76.7124 54.5438 75.3983 56.39 74.8508ZM8.44026 127.415C8.44026 127.415 8.33476 127.36 8.28201 127.251C7.33251 125.991 7.12151 121.447 8.28201 116.957C8.28201 116.902 8.28201 116.902 8.28201 116.847C9.28426 110.441 10.6558 103.706 12.3965 96.3692C13.2405 92.7007 14.1373 89.0321 15.1395 85.4731C15.1395 85.4731 15.1395 85.4731 15.1923 85.4731L15.245 85.5279C17.3023 86.6229 18.3045 88.9226 18.4628 93.0292C18.5683 97.5738 17.7243 102.118 16.6693 107.265C15.4033 112.96 13.979 117.723 12.1855 121.775C9.81176 127.251 8.49301 127.415 8.44026 127.415Z" fill="black"/>
</svg>
