<?xml version="1.0" encoding="utf-8"?>
<!-- Generator: Adobe Illustrator 28.0.0, SVG Export Plug-In . SVG Version: 6.00 Build 0)  -->
<svg version="1.1" id="Calque_1" xmlns="http://www.w3.org/2000/svg" xmlns:xlink="http://www.w3.org/1999/xlink" x="0px" y="0px"
	 width="211.1px" height="139.3px" viewBox="0 0 211.1 139.3" style="enable-background:new 0 0 211.1 139.3;" xml:space="preserve"
	>
<style type="text/css">
	.st0{fill:#FFFFFF;}
</style>
<path d="M145.1,61.9c-0.3,0-0.6-0.1-0.9-0.1c-0.8-0.2-1.5-0.8-2-1.6c-0.5-0.8-0.6-1.8-0.4-2.7c0.6-2.1,1.2-4.2,1.7-6.2l0.1-0.1
	c0.2-0.7,0.7-1.3,1.5-2c0.5-0.3,1.1-0.5,1.8-0.5c0.3,0,0.5,0,0.8,0.1h0.1c0.8,0.3,1.6,0.9,2.1,1.6c0.4,0.9,0.5,1.9,0.3,2.7
	c-0.6,2.2-1.1,4.3-1.7,6.4c-0.2,0.9-0.7,1.5-1.5,2.1c0,0-0.1,0-0.1,0.1C146.2,61.8,145.7,61.9,145.1,61.9z"/>
<path d="M146.9,49.2c0.3,0,0.5,0,0.7,0.1c0.7,0.2,1.4,0.8,1.7,1.4c0.3,0.7,0.4,1.6,0.2,2.2c-0.5,2.1-1.1,4.3-1.7,6.4
	c-0.2,0.8-0.6,1.4-1.3,1.8c-0.4,0.2-0.9,0.3-1.4,0.3c-0.3,0-0.5-0.1-0.8-0.1c-0.6-0.1-1.3-0.7-1.6-1.4c-0.4-0.7-0.5-1.5-0.3-2.2
	c0.6-2.1,1.2-4.3,1.7-6.4c0.2-0.7,0.7-1.3,1.3-1.7C145.9,49.3,146.4,49.2,146.9,49.2z M146.9,48.1c-0.8,0-1.5,0.2-2.1,0.6l-0.1,0.1
	c-0.8,0.7-1.4,1.4-1.6,2.2V51l-0.1,0.2c-0.5,2-1.1,4.1-1.7,6.2c0,0,0,0,0,0.1c-0.3,1.1-0.2,2.2,0.4,3.1c0.5,1,1.4,1.7,2.3,1.9
	c0.3,0.1,0.7,0.2,1.1,0.2c0.6,0,1.3-0.2,1.8-0.4c0.1,0,0.1-0.1,0.1-0.1c0.9-0.6,1.4-1.4,1.7-2.4c0.6-2.1,1.2-4.1,1.7-6.4
	c0.3-0.9,0.2-2.1-0.3-3.1c0,0,0-0.1-0.1-0.1c-0.5-0.9-1.4-1.5-2.4-1.9c-0.1,0-0.1,0-0.1,0C147.4,48.1,147.2,48.1,146.9,48.1z"/>
<path d="M9.1,138.7c-1.5,0-2.8-0.7-3.9-1.9c-2.6-3.1-3.2-9.6-1.9-18.8C7.4,91.2,15.9,63,28.6,34.3c0.5-1.1,1.6-1.8,2.8-1.8
	c0.6,0,1.2,0.2,1.7,0.5c1.6,0.9,1.9,3.1,1.3,4.6c-3.3,7.4-6.1,14.5-8.8,21.6c-2.4,6.9-4.8,14.3-7.1,22.1c0.3-0.1,0.5-0.1,0.7-0.1
	c0.3,0,0.5,0.1,0.8,0.1c3.6,1,7.2,1.4,11,1.4c4.1,0,8.2-0.6,12.3-1.8c2.3-3.5,5.4-6.5,8.8-8.6c3-1.7,5.4-2.5,7.6-2.5
	c0.9,0,1.8,0.2,2.7,0.4c2.1,0.7,3.6,2.1,4.2,4.1c0.7,2.1,0.3,4.6-1.1,6.6c-4.2,6.2-11.7,11.2-20,13.5c0.3,2.5,3,2.9,4.7,2.9
	c3,0,6.9-1.2,10.5-3.3c7.1-3.9,14-11.9,14.5-12.5c2.3-3.8,5.6-7.1,9.3-9.3c3-1.7,5.4-2.5,7.6-2.5c0.9,0,1.8,0.2,2.7,0.4
	c2.1,0.7,3.6,2.1,4.2,4.1c0.7,2.1,0.3,4.6-1.1,6.6c-4.2,6.2-11.7,11.2-20,13.5c0.3,2.5,3,2.9,4.7,2.9c3,0,6.9-1.2,10.5-3.3
	c6.5-3.7,13.5-11.1,14.8-12.8c0.1-0.1,0.2-0.3,0.4-0.4c0.1-0.3,0.1-0.5,0.2-0.8c4.4-20.3,8.5-33.5,14.2-51.7
	c1.7-5.4,3.4-11,5.4-17.5c0.5-1.5,1.7-2.4,3.2-2.4c1.2,0,2.3,0.5,2.8,1.4c0.6,0.8,0.7,1.8,0.4,2.8c-1.9,6.2-3.9,12.5-5.8,18.7
	c-3.9,12.3-7.8,24.9-11.4,38.3c-2.1,8.1-3.6,15.3-4.6,22.2c-0.5,3.2-0.2,5.5,0.8,6.7c0.6,0.7,1.4,1,2.4,1c5.2,0,14.6-8.2,19-16.6
	c0.1-0.2,0.2-0.3,0.3-0.4c0.8-3.6,1.9-7.2,2.8-9.9c0.6-1.5,1.8-2.5,3.2-2.5c0.3,0,0.6,0.1,0.9,0.1c0.9,0.3,1.7,1.1,2.2,2
	c0.4,0.8,0.4,1.6,0.2,2.3c-1.2,3.1-4.1,11.2-4.9,18.1c-0.5,3.8-0.4,6.2,0.3,7.1c0.2,0.3,0.5,0.4,1,0.4c1,0,2.5-0.8,4.5-2.4
	c3.6-3.3,8.1-7.4,10.8-13c0.7-4.7,1.8-9.1,2.7-12.5c2.8-11.7,6.7-22.8,10.2-32.4c-6.2,0.7-12.5,1.4-18.4,2.1c-0.1,0-0.2,0-0.2,0
	c-1.8,0-3.2-1.9-3.2-3.4c0-1.9,1.4-3.3,3.3-3.4l21.2-2.5c4.1-10.5,7.9-19.5,11.7-27.8c0.5-1,1.6-1.8,2.9-1.8c0.6,0,1.3,0.2,1.7,0.5
	c1.5,0.8,2,2.7,1.2,4.6c-4,8.8-7.2,16.3-9.9,23.6l27.4-3.2c0.1,0,0.2,0,0.3,0c1.7,0,3.1,1.9,3.1,3.5c0,1.8-1.3,3.2-3.3,3.4
	l-30.3,3.4c-0.4,1.2-0.9,2.5-1.4,3.8c-3.4,9.3-7.2,20.3-9.9,31.5c-1.4,5.6-2.3,10.8-2.8,15.9c-0.8,6.2-0.2,8.5,0.6,9.4
	c0.3,0.4,0.7,0.5,1.2,0.5c0.9,0,2.3-0.7,4-2c4.2-3.4,8.7-8.7,13.3-15.7c0.5-0.8,1.4-1.2,2.5-1.2c0.8,0,1.6,0.3,2.2,0.8
	c1.6,1.2,1.5,3.4,0.5,4.8c-3.8,5.6-10.2,13.7-15.2,17.8c-3.2,2.7-5.9,4.1-8.1,4.1c-0.4,0-0.7-0.1-1.1-0.1c-2.1-0.3-4-1.9-5.1-4.1
	c-0.9-1.8-1.5-4.1-1.7-6.9c-1.9,2.2-3.9,4.3-6,5.9c-1.2,0.9-5.4,3.9-9.4,3.9c-2.6,0-4.6-1.4-5.7-3.9c-1-2.2-1.1-5.5-0.9-8.2
	c-5.7,6-13.9,12.6-19.9,12.6c-1.8,0-3.3-0.6-4.4-1.8c-1.8-1.9-2.6-5.2-2.6-9.9c0.1-1.3,0.1-2.6,0.3-4.2c-4.8,4.3-14.9,12.1-24,12.1
	c-2.8,0-5.3-0.8-7.5-2.2c-2.8-1.9-3.6-5-3.7-7.7c-5.7,4.7-13.8,9.9-21.4,9.9c-2.8,0-5.3-0.8-7.5-2.2c-4.4-3-3.9-8.9-3.5-11.3
	c0.1-0.7,0.3-1.4,0.4-2c-2.8,0.5-5.6,0.8-8.4,0.8c-1.5,0-3.1-0.1-4.6-0.2c0.3,0.8,0.4,1.7,0.6,2.5l0.1,0.3c0.6,4.5,0.1,8.8-0.5,12.9
	c-0.5,3.9-1.5,7.6-2.5,11.5c-0.2,0.9-0.5,1.8-0.7,2.6c-1.3,5.5-3.6,10.5-6.4,14.1C14.7,136.8,11.8,138.7,9.1,138.7z M17,87.3
	c-1.1,3.8-2.1,7.8-3,11.7c-1.7,7.3-3.1,14.1-4.1,20.5C8.7,124.5,9,129,10,130.4c0.3,0.4,0.5,0.4,0.6,0.4c0.4,0,1.8-0.4,4.2-6
	c1.8-4.1,3.3-8.9,4.5-14.6c1.1-5.1,2-9.7,1.8-14.3c-0.1-2.7-0.5-6.4-3.5-7.9C17.4,87.6,17.1,87.4,17,87.3z M58.4,77
	c-2,0.6-4.2,2-6,3.8c-1.7,1.5-3.2,3.4-4.5,5.8c2-0.8,3.8-1.8,5.5-3c1.3-0.9,2.5-1.9,3.6-2.9c0.2-0.3,0.5-0.5,0.8-0.8
	c0.9-0.9,2-1.9,2.5-3c-0.2,0-0.3-0.1-0.5-0.1C59.4,76.9,59,77,58.4,77z M91,77c-2,0.6-4.2,2-6,3.8c-1.7,1.5-3.2,3.4-4.5,5.8
	c2-0.8,3.8-1.8,5.5-3c1.3-0.9,2.5-1.9,3.6-2.9c0.2-0.3,0.5-0.5,0.8-0.8c0.9-0.9,2-1.9,2.5-3c-0.2,0-0.3-0.1-0.5-0.1
	C92,76.9,91.5,77,91,77z"/>
<path d="M186.7,3.9c0.5,0,1.1,0.2,1.5,0.4c1.4,0.8,1.6,2.5,0.9,3.9c-3.7,8.1-7.1,16.2-10.3,24.5l28.2-3.2c0.1,0,0.2,0,0.3,0
	c1.4,0,2.5,1.6,2.5,3c0,1.7-1.3,2.7-2.8,2.9l-30.6,3.5c-0.4,1.4-0.9,2.8-1.5,4.2c-3.8,10.3-7.3,20.8-10,31.5
	c-1.3,5.3-2.3,10.6-2.8,15.9c-1.1,7.8,0.1,10.6,2.3,10.6c1.2,0,2.7-0.8,4.3-2.1c5-4.1,9.7-10.1,13.4-15.8c0.5-0.7,1.3-1,2.1-1
	c0.7,0,1.4,0.2,1.8,0.7c1.3,1,1.3,2.8,0.4,4.1c-3.5,5.1-9.9,13.4-15.1,17.7c-2.6,2.2-5.3,3.9-7.8,3.9c-0.3,0-0.7-0.1-1-0.1
	c-2.1-0.3-3.8-1.9-4.7-3.8c-1.2-2.1-1.6-4.9-1.7-8c-2,2.6-4.3,4.9-6.8,6.9c-2.2,1.7-5.9,3.8-9.1,3.8c-2.2,0-4.1-0.9-5.3-3.6
	c-1-2.2-1.2-5.6-0.8-9.4c-5.9,6.5-14.6,13.5-20.5,13.5c-3.9,0-6.5-3-6.4-11.1c0.1-1.6,0.2-3.6,0.4-5.5c-6.1,5.6-16,12.9-24.6,12.9
	c-2.5,0-5-0.6-7.2-2.1c-2.7-1.9-3.6-5.1-3.5-8.3c-6.1,5-14.4,10.5-21.9,10.5c-2.5,0-5-0.6-7.2-2.1c-3.5-2.4-3.9-7-3.3-10.8
	c0.2-0.9,0.4-1.9,0.6-2.8c-3,0.6-6.1,0.9-9.1,0.9c-1.8,0-3.6-0.1-5.4-0.3c0.4,1.1,0.6,2.4,0.8,3.5c0.5,4.3,0.1,8.4-0.5,12.7
	c-0.6,4.8-2,9.3-3.1,14c-2.8,11.7-9.3,19.1-14.1,19.1c-4.3,0-7.3-6-5.2-20.1C8.1,89.2,17.2,61.2,29,34.5c0.4-0.9,1.4-1.4,2.3-1.4
	c0.5,0,1,0.2,1.4,0.4c1.4,0.8,1.6,2.6,1.1,3.9c-3.2,7.2-6.1,14.3-8.8,21.7c-2.7,7.7-5.2,15.5-7.5,23.4c0.5-0.4,1-0.7,1.6-0.7
	c0.2,0,0.4,0.1,0.6,0.1c3.6,1,7.4,1.5,11.1,1.5c4.3,0,8.5-0.7,12.6-1.9c2.3-3.5,5.3-6.5,8.8-8.6c2.2-1.3,4.8-2.4,7.4-2.4
	c0.8,0,1.7,0.1,2.5,0.4c4.2,1.4,5.4,6.2,2.9,9.9c-4.5,6.7-12.3,11.3-19.9,13.4c-0.1,0.1-0.1,0.1-0.2,0.1c0.1,2.6,2.2,3.8,5.2,3.8
	c3,0,6.9-1.1,10.8-3.3c6.4-3.6,13-10.6,14.7-12.6c2.3-3.8,5.5-7,9.1-9.1c2.2-1.3,4.8-2.4,7.4-2.4c0.8,0,1.7,0.1,2.5,0.4
	c4.2,1.4,5.4,6.2,2.9,9.9c-4.5,6.7-12.3,11.3-19.9,13.4c-0.1,0.1-0.1,0.1-0.2,0.1c0.1,2.6,2.2,3.8,5.2,3.8c3,0,6.9-1.1,10.8-3.3
	c6.8-3.8,13.7-11.4,14.9-12.9c0.1-0.2,0.3-0.3,0.4-0.4c0.1-0.3,0.2-0.6,0.2-0.9c5.6-26.2,10.8-40.4,19.6-69.2c0.4-1.4,1.5-2,2.6-2
	c1.7,0,3.4,1.4,2.7,3.6c-5.6,18.6-11.8,36.8-17.2,56.9c-2,7.4-3.6,14.8-4.6,22.2c-0.8,6,0.8,8.4,3.7,8.4c5.4,0,15-8.4,19.5-16.9
	c0.1-0.2,0.2-0.3,0.3-0.4c0.9-3.9,2-7.5,2.8-9.9c0.5-1.2,1.4-2.1,2.7-2.1c0.3,0,0.5,0.1,0.8,0.1c1.3,0.4,2.5,2.1,2,3.6
	c-1.4,3.7-4.1,11.6-4.9,18.2c-0.7,5-0.4,8.1,1.7,8.1c1.1,0,2.7-0.8,4.9-2.5c4.1-3.8,8.3-7.7,11-13.3c0.7-4.7,1.8-9.2,2.7-12.5
	c2.7-11.3,6.5-22.3,10.5-33.1c-6.4,0.7-12.9,1.5-19.3,2.2c-0.1,0-0.1,0-0.2,0c-1.4,0-2.7-1.6-2.7-2.9c0-1.7,1.3-2.8,2.8-2.9
	l21.5-2.6c3.7-9.4,7.6-18.9,11.8-28.1C184.7,4.4,185.8,3.9,186.7,3.9z M79.4,87.6c2.4-0.9,4.6-2,6.8-3.5c1.3-0.9,2.5-1.9,3.7-2.9
	c1.2-1.3,2.7-2.5,3.5-4.1c0.1-0.2,0.2-0.5,0.3-0.7c-0.1,0-0.2,0-0.3,0c-0.3-0.1-0.6-0.1-1-0.1c-0.5,0-1.1,0.1-1.5,0.1
	c-2.3,0.7-4.5,2.2-6.3,3.9c-2.2,1.9-3.8,4.3-5.1,6.8C79.5,87.4,79.4,87.5,79.4,87.6z M46.8,87.6c2.4-0.9,4.6-2,6.8-3.5
	c1.3-0.9,2.5-1.9,3.7-2.9c1.2-1.3,2.7-2.5,3.5-4.1c0.1-0.2,0.2-0.5,0.3-0.7c-0.1,0-0.2,0-0.3,0c-0.3-0.1-0.6-0.1-1-0.1
	c-0.5,0-1.1,0.1-1.5,0.1c-2.3,0.7-4.5,2.2-6.3,3.9c-2.2,1.9-3.8,4.3-5.1,6.8C46.9,87.4,46.8,87.5,46.8,87.6z M10.6,131.2
	c1.1,0,2.7-1.8,4.6-6.4c2.1-4.7,3.5-9.7,4.5-14.7c0.9-4.7,2-9.6,1.8-14.5c-0.1-3.3-0.7-6.8-3.8-8.4c-0.5-0.3-0.8-0.8-1.1-1.3
	c-1.2,4.3-2.3,8.5-3.3,12.8c-1.6,6.8-3,13.7-4.1,20.5C7.9,125.2,8.5,131.2,10.6,131.2z M186.7,2.8c-1.5,0-2.8,0.8-3.4,2.1
	c-3.7,8.2-7.5,17.1-11.6,27.5l-20.9,2.5c-2.2,0.2-3.7,1.9-3.7,4c0,1.9,1.6,4,3.7,4c0.1,0,0.2,0,0.2,0h0.1c5.6-0.7,11.6-1.4,17.5-2.1
	c-3.4,9.3-7.2,20.3-9.9,31.6c-0.8,3.3-2,7.8-2.7,12.5c-2.7,5.5-7.1,9.5-10.7,12.8c-2.5,2-3.7,2.2-4.2,2.2c-0.3,0-0.4-0.1-0.5-0.2
	c-0.4-0.4-0.8-1.9-0.2-6.6c0,0,0,0,0-0.1c0.8-6.8,3.6-14.8,4.8-17.9c0.3-0.9,0.3-1.8-0.2-2.7c-0.5-1-1.4-2-2.4-2.3h-0.1
	c-0.4-0.1-0.7-0.2-1.1-0.2c-1.6,0-3,1.1-3.7,2.8c-0.9,2.7-2,6.2-2.8,9.8c-0.1,0.1-0.2,0.3-0.3,0.4c-4.4,8.3-13.6,16.4-18.6,16.4
	c-0.9,0-1.5-0.3-2-0.8c-0.6-0.8-1.3-2.5-0.7-6.3c1-6.8,2.5-14,4.6-22.1c3.6-13.4,7.5-26,11.4-38.2c1.9-6.1,3.9-12.4,5.8-18.7
	c0.4-1.2,0.2-2.4-0.5-3.3c-0.7-1-2-1.6-3.3-1.6c-1.7,0-3.1,1-3.6,2.7c-2,6.5-3.7,12-5.4,17.5c-5.7,18.2-9.8,31.4-14.2,51.8
	c-0.1,0.2-0.1,0.4-0.1,0.5c-0.1,0.1-0.2,0.2-0.3,0.3c-1.3,1.6-8.1,9-14.6,12.6c-3.6,2-7.3,3.2-10.3,3.2c-1.6,0-3.6-0.4-4.1-2
	c8.3-2.4,15.7-7.4,19.8-13.6c1.4-2.1,1.8-4.8,1.1-7.1c-0.7-2.2-2.3-3.8-4.6-4.5c-0.9-0.3-1.8-0.4-2.8-0.4c-2.4,0-4.9,0.8-7.9,2.6
	c-3.7,2.3-7.1,5.6-9.4,9.5c-0.7,0.8-7.5,8.5-14.3,12.3c-3.6,2-7.3,3.2-10.3,3.2c-1.6,0-3.6-0.4-4.1-2c8.3-2.4,15.7-7.4,19.8-13.6
	c1.4-2.1,1.8-4.8,1.1-7.1c-0.7-2.2-2.3-3.8-4.6-4.5c-0.9-0.3-1.8-0.4-2.8-0.4c-2.4,0-4.9,0.8-7.9,2.6c-3.5,2.1-6.6,5.1-8.9,8.6
	c-4,1.1-8,1.7-12,1.7c-3.6,0-7.3-0.5-10.8-1.4c-0.3-0.1-0.6-0.1-0.9-0.1c2.2-7.4,4.5-14.6,6.9-21.2c2.6-7.1,5.5-14.2,8.8-21.6
	c0,0,0,0,0-0.1c0.7-1.8,0.4-4.2-1.5-5.3c-0.6-0.4-1.3-0.5-2-0.5c-1.5,0-2.7,0.8-3.3,2.1c-12.8,28.8-21.3,57-25.3,83.8
	c-1.4,9.3-0.7,16,2,19.3c1.2,1.4,2.6,2.1,4.3,2.1c5.9,0,12.4-8.5,15.1-19.9c0.2-0.9,0.4-1.8,0.7-2.6c1-3.9,2-7.6,2.5-11.6
	c0.6-4.1,1.1-8.5,0.5-13v-0.1l-0.1-0.3c-0.1-0.5-0.2-1.1-0.4-1.8c1.3,0.1,2.6,0.2,3.9,0.2c2.5,0,5.1-0.2,7.7-0.6
	C39,90.2,39,90.6,38.9,91c-0.9,5.3,0.5,9.6,3.7,11.9c2.3,1.5,4.9,2.3,7.8,2.3c4.2,0,11.2-1.6,20.9-9.4c0.4,3.1,1.7,5.6,3.9,7.1
	c2.3,1.5,4.9,2.3,7.8,2.3c3.9,0,12-1.5,23.4-11.4c-0.1,1-0.1,2-0.2,2.8c-0.1,4.8,0.8,8.3,2.7,10.2c1.2,1.3,2.8,2,4.8,2
	c5.8,0,13.6-6,19.3-11.8c-0.1,3,0.3,5.3,1.1,7c1.2,2.8,3.4,4.2,6.2,4.2c4.2,0,8.5-3.1,9.8-4.1c1.8-1.5,3.6-3.2,5.3-5.1
	c0.3,2.4,0.8,4.3,1.7,5.9c1.2,2.4,3.3,4,5.5,4.4c0.4,0.1,0.8,0.1,1.2,0.1c2.4,0,5.1-1.4,8.4-4.2c5.1-4.2,11.5-12.3,15.4-18
	c1.3-1.8,1-4.3-0.6-5.5c-0.7-0.5-1.6-0.9-2.5-0.9c-1.2,0-2.3,0.5-2.9,1.4c-4.6,7-9.1,12.2-13.2,15.6c-2.1,1.6-3.2,1.9-3.6,1.9
	c-0.4,0-0.6-0.1-0.8-0.4c-0.5-0.7-1.3-2.6-0.5-8.9c0,0,0,0,0-0.1c0.5-5.1,1.4-10.2,2.8-15.8c2.7-11.2,6.5-22.2,9.9-31.4
	c0.5-1.2,0.9-2.4,1.3-3.6l30-3.4c0,0,0,0,0.1,0c2.2-0.3,3.7-1.9,3.7-4c0-1.9-1.5-4.1-3.6-4.1c-0.2,0-0.3,0-0.4,0.1l-26.5,3.1
	c2.7-7,5.8-14.3,9.6-22.7c0.9-2.1,0.4-4.3-1.4-5.4C188.2,3,187.5,2.8,186.7,2.8z M58.6,77.6c0.3-0.1,0.6-0.1,0.8-0.1
	c-0.5,0.7-1.2,1.4-1.9,2.1c-0.3,0.3-0.6,0.5-0.8,0.8c-1.1,0.9-2.3,2-3.5,2.8c-1.2,0.8-2.5,1.5-3.9,2.2c1.1-1.6,2.2-3,3.5-4.2
	c0,0,0,0,0.1-0.1C54.5,79.5,56.7,78.1,58.6,77.6z M91.1,77.6c0.3-0.1,0.6-0.1,0.8-0.1c-0.5,0.7-1.2,1.4-1.9,2.1
	c-0.3,0.3-0.6,0.5-0.8,0.8c-1.1,0.9-2.3,2-3.5,2.8c-1.2,0.8-2.5,1.5-3.9,2.2c1.1-1.6,2.2-3,3.5-4.2c0,0,0,0,0.1-0.1
	C87.1,79.5,89.3,78.1,91.1,77.6z M10.6,130.2c0,0-0.1-0.1-0.2-0.2c-0.9-1.3-1.2-5.8,0-10.3c0-0.1,0-0.1,0-0.1
	c1-6.4,2.4-13.1,4.1-20.5c0.8-3.7,1.7-7.3,2.7-10.9c0,0,0,0,0.1,0l0.1,0.1c2.1,1.1,3.1,3.4,3.2,7.5c0.1,4.5-0.7,9.1-1.8,14.2
	c-1.3,5.7-2.7,10.5-4.5,14.5C11.9,130,10.6,130.2,10.6,130.2z"/>
<path class="st0" d="M143,59.1c-0.3,0-0.6-0.1-0.9-0.1c-0.8-0.2-1.5-0.8-2-1.6c-0.5-0.8-0.6-1.8-0.4-2.7c0.6-2.1,1.2-4.2,1.7-6.2
	l0.1-0.2c0.2-0.7,0.7-1.3,1.5-2c0.5-0.3,1.1-0.5,1.8-0.5c0.3,0,0.5,0,0.8,0.1h0.1c0.8,0.3,1.6,0.9,2.1,1.6c0.4,0.9,0.5,1.9,0.3,2.7
	c-0.6,2.2-1.1,4.3-1.7,6.4c-0.2,0.9-0.7,1.5-1.5,2.1c0,0-0.1,0-0.1,0.1C144.1,59,143.5,59.1,143,59.1z"/>
<path d="M144.7,46.4c0.3,0,0.5,0,0.7,0.1c0.7,0.2,1.4,0.8,1.7,1.4c0.3,0.7,0.4,1.6,0.2,2.2c-0.5,2.1-1.1,4.3-1.7,6.4
	c-0.2,0.8-0.6,1.4-1.3,1.8c-0.4,0.2-0.9,0.3-1.4,0.3c-0.3,0-0.5-0.1-0.8-0.1c-0.6-0.1-1.3-0.7-1.6-1.4c-0.4-0.7-0.5-1.5-0.3-2.2
	c0.6-2.1,1.2-4.3,1.7-6.4c0.2-0.7,0.7-1.3,1.3-1.7C143.7,46.4,144.2,46.4,144.7,46.4z M144.7,45.3c-0.8,0-1.5,0.2-2.1,0.6l-0.1,0.1
	c-0.8,0.7-1.4,1.4-1.6,2.2v0.1l-0.1,0.2c-0.5,2-1.1,4.1-1.7,6.2c0,0,0,0,0,0.1c-0.3,1.1-0.2,2.2,0.4,3.1c0.5,1,1.4,1.7,2.3,1.9
	c0.3,0.1,0.7,0.2,1.1,0.2c0.6,0,1.3-0.2,1.8-0.4c0.1,0,0.1-0.1,0.1-0.1c0.9-0.6,1.4-1.4,1.7-2.4c0.6-2.1,1.2-4.1,1.7-6.4
	c0.3-0.9,0.2-2.1-0.3-3.1c0,0,0-0.1-0.1-0.1c-0.5-0.9-1.4-1.5-2.4-1.9c-0.1,0-0.1,0-0.1,0C145.3,45.3,145,45.3,144.7,45.3z"/>
<path class="st0" d="M7,135.9c-1.5,0-2.8-0.7-3.9-1.9c-2.5-3.1-3.2-9.6-1.8-18.8c4-26.8,12.5-54.9,25.3-83.7
	c0.5-1.1,1.6-1.8,2.8-1.8c0.6,0,1.2,0.2,1.7,0.5c1.6,0.9,1.9,3.1,1.3,4.6c-3.3,7.4-6.1,14.5-8.8,21.6c-2.4,6.9-4.8,14.3-7.1,22.1
	c0.3-0.1,0.5-0.1,0.7-0.1c0.3,0,0.5,0.1,0.8,0.1c3.6,1,7.2,1.4,11,1.4c4.1,0,8.2-0.6,12.3-1.8c2.3-3.5,5.4-6.5,8.8-8.6
	c3-1.7,5.4-2.5,7.6-2.5c0.9,0,1.8,0.2,2.7,0.4c2.1,0.7,3.6,2.1,4.2,4.1c0.7,2.1,0.3,4.6-1.1,6.6c-4.2,6.2-11.7,11.2-20,13.5
	c0.3,2.5,3,2.9,4.7,2.9c3,0,6.9-1.2,10.5-3.3c7.1-3.9,14-11.9,14.5-12.5c2.3-3.8,5.6-7.1,9.3-9.3c3-1.7,5.4-2.5,7.6-2.5
	c0.9,0,1.8,0.2,2.7,0.4c2.1,0.7,3.6,2.1,4.2,4.1c0.7,2.1,0.3,4.6-1.1,6.6c-4.2,6.2-11.7,11.2-20,13.5c0.3,2.5,3,2.9,4.7,2.9
	c3,0,6.9-1.2,10.5-3.3c6.5-3.7,13.5-11.1,14.8-12.8c0.1-0.1,0.2-0.3,0.4-0.4c0.1-0.3,0.1-0.5,0.2-0.8c4.4-20.3,8.5-33.5,14.2-51.7
	c1.7-5.4,3.4-11,5.4-17.5c0.5-1.5,1.7-2.4,3.2-2.4c1.2,0,2.3,0.5,2.8,1.4c0.6,0.8,0.7,1.8,0.4,2.8c-1.9,6.2-3.9,12.5-5.8,18.6
	C123,41,119,53.7,115.4,67c-2.1,8.1-3.6,15.3-4.6,22.2c-0.5,3.2-0.2,5.5,0.8,6.7c0.6,0.7,1.4,1,2.4,1c5.2,0,14.6-8.2,19-16.6
	c0.1-0.2,0.2-0.3,0.3-0.4c0.8-3.6,1.9-7.2,2.8-9.9c0.6-1.5,1.8-2.5,3.2-2.5c0.3,0,0.6,0.1,0.9,0.1c0.9,0.3,1.7,1.1,2.2,2
	c0.4,0.8,0.4,1.6,0.2,2.3c-1.2,3.1-4.1,11.2-4.9,18.1c-0.5,3.8-0.4,6.2,0.3,7.1c0.2,0.3,0.5,0.4,1,0.4c1,0,2.5-0.8,4.5-2.4
	c3.6-3.3,8.1-7.4,10.8-13c0.7-4.7,1.8-9.1,2.7-12.5c2.8-11.7,6.7-22.8,10.2-32.4c-6.2,0.7-12.5,1.4-18.4,2.1c-0.1,0-0.2,0-0.2,0
	c-1.8,0-3.2-1.9-3.2-3.4c0-1.9,1.4-3.3,3.3-3.4l21.2-2.5c4.1-10.5,7.9-19.5,11.7-27.8c0.5-1,1.6-1.8,2.9-1.8c0.6,0,1.3,0.2,1.7,0.5
	c1.5,0.8,2,2.7,1.2,4.6c-4,8.8-7.2,16.3-9.9,23.6l27.4-3.2c0.1,0,0.2,0,0.3,0c1.7,0,3.1,1.9,3.1,3.5c0,1.8-1.3,3.2-3.3,3.4
	l-30.3,3.4c-0.4,1.2-0.9,2.5-1.4,3.8c-3.4,9.3-7.2,20.3-9.9,31.5c-1.4,5.6-2.3,10.8-2.8,15.9c-0.8,6.2-0.2,8.5,0.6,9.4
	c0.3,0.4,0.7,0.5,1.2,0.5c0.9,0,2.3-0.7,4-2c4.2-3.4,8.7-8.7,13.3-15.7c0.5-0.8,1.4-1.2,2.5-1.2c0.8,0,1.6,0.3,2.2,0.8
	c1.6,1.2,1.5,3.4,0.5,4.8c-3.8,5.6-10.2,13.7-15.2,17.8c-3.2,2.7-5.9,4.1-8.1,4.1c-0.4,0-0.7-0.1-1.1-0.1c-2.1-0.3-4-1.9-5.1-4.1
	c-0.9-1.8-1.5-4.1-1.7-6.9c-1.9,2.2-3.9,4.3-6,5.9c-1.2,0.9-5.4,3.9-9.4,3.9c-2.6,0-4.6-1.4-5.7-3.9c-1-2.2-1.1-5.5-0.9-8.2
	c-5.7,6-13.9,12.6-19.9,12.6c-1.8,0-3.3-0.6-4.4-1.8c-1.8-1.9-2.6-5.2-2.6-9.9c0.1-1.3,0.1-2.6,0.3-4.2c-4.8,4.3-14.9,12.1-24,12.1
	c-2.8,0-5.3-0.8-7.5-2.2c-2.8-1.9-3.6-5-3.7-7.7c-5.7,4.7-13.8,9.9-21.4,9.9c-2.8,0-5.3-0.8-7.5-2.2c-4.4-3-3.9-8.9-3.5-11.3
	c0.1-0.7,0.3-1.4,0.4-2c-2.8,0.5-5.6,0.8-8.4,0.8c-1.5,0-3.1-0.1-4.6-0.2c0.3,0.8,0.4,1.7,0.6,2.5l0.1,0.3c0.6,4.5,0.1,8.8-0.5,12.9
	c-0.5,3.9-1.5,7.6-2.5,11.5c-0.2,0.9-0.5,1.8-0.7,2.6c-1.3,5.5-3.6,10.5-6.4,14.1C12.5,134,9.6,135.9,7,135.9z M14.8,84.5
	c-1.1,3.8-2.1,7.8-3,11.7c-1.7,7.3-3.1,14.1-4.1,20.5c-1.3,4.9-0.9,9.5,0.1,10.8c0.3,0.4,0.5,0.4,0.6,0.4c0.4,0,1.8-0.4,4.2-6
	c1.8-4.1,3.3-8.9,4.5-14.6c1.1-5.1,2-9.7,1.8-14.3c-0.1-2.7-0.5-6.4-3.5-7.9C15.2,84.8,15,84.6,14.8,84.5z M56.3,74.2
	c-2,0.6-4.2,2-6,3.8c-1.7,1.5-3.2,3.4-4.5,5.8c2-0.8,3.8-1.8,5.5-3c1.3-0.9,2.5-1.9,3.6-2.9c0.2-0.3,0.5-0.5,0.8-0.8
	c0.9-0.9,2-1.9,2.5-3c-0.2,0-0.3-0.1-0.5-0.1C57.3,74.1,56.8,74.1,56.3,74.2z M88.8,74.2c-2,0.6-4.2,2-6,3.8
	c-1.7,1.5-3.2,3.4-4.5,5.8c2-0.8,3.8-1.8,5.5-3c1.3-0.9,2.5-2,3.6-2.9c0.2-0.3,0.5-0.5,0.8-0.8c0.9-0.9,2-1.9,2.5-3
	c-0.2,0-0.3-0.1-0.5-0.1C89.8,74.1,89.4,74.1,88.8,74.2z"/>
<path d="M184.6,1.1c0.5,0,1.1,0.2,1.5,0.4c1.4,0.8,1.6,2.5,0.9,3.9c-3.7,8.1-7.1,16.2-10.3,24.5l28.2-3.2c0.1,0,0.2,0,0.3,0
	c1.4,0,2.5,1.6,2.5,3c0,1.7-1.3,2.7-2.8,2.9l-30.6,3.5c-0.4,1.4-0.9,2.8-1.5,4.2c-3.8,10.3-7.3,20.8-10,31.5
	c-1.3,5.3-2.3,10.6-2.8,15.9c-1.1,7.8,0.1,10.6,2.3,10.6c1.2,0,2.7-0.8,4.3-2.1c5-4.1,9.7-10.1,13.4-15.8c0.5-0.7,1.3-1,2.1-1
	c0.7,0,1.4,0.2,1.8,0.7c1.3,1,1.3,2.8,0.4,4.1c-3.5,5.1-9.9,13.4-15.1,17.7c-2.6,2.2-5.3,3.9-7.8,3.9c-0.3,0-0.7-0.1-1-0.1
	c-2.1-0.3-3.8-1.9-4.7-3.8c-1.2-2.1-1.6-4.9-1.7-8c-2,2.6-4.3,4.9-6.8,6.9c-2.2,1.7-5.9,3.8-9.1,3.8c-2.2,0-4.1-0.9-5.3-3.6
	c-1-2.2-1.2-5.6-0.8-9.4c-5.9,6.5-14.6,13.5-20.5,13.5c-3.9,0-6.5-3-6.4-11.1c0.1-1.6,0.2-3.6,0.4-5.5c-6.1,5.6-16,12.9-24.6,12.9
	c-2.5,0-5-0.6-7.2-2.1c-2.7-1.9-3.6-5.1-3.5-8.3c-6.1,5-14.4,10.5-21.9,10.5c-2.5,0-5-0.6-7.2-2.1c-3.5-2.4-3.9-7-3.3-10.8
	c0.2-0.9,0.4-1.9,0.6-2.8c-3,0.6-6.1,0.9-9.1,0.9c-1.8,0-3.6-0.1-5.4-0.3c0.4,1.1,0.6,2.4,0.8,3.5c0.5,4.3,0.1,8.4-0.5,12.7
	c-0.6,4.8-2,9.3-3.1,14c-2.8,11.7-9.3,19.1-14.1,19.1c-4.3,0-7.3-6-5.2-20.1C6,86.5,15.1,58.4,26.9,31.8c0.4-0.9,1.4-1.4,2.3-1.4
	c0.5,0,1,0.2,1.4,0.4c1.4,0.8,1.6,2.6,1.1,3.9c-3.2,7.2-6.1,14.3-8.8,21.7c-2.7,7.7-5.2,15.5-7.5,23.4c0.5-0.4,1-0.7,1.6-0.7
	c0.2,0,0.4,0.1,0.6,0.1c3.6,1,7.4,1.5,11.1,1.5c4.3,0,8.5-0.7,12.6-1.9c2.3-3.5,5.3-6.5,8.8-8.6c2.2-1.3,4.8-2.4,7.4-2.4
	c0.8,0,1.7,0.1,2.5,0.4c4.2,1.4,5.4,6.2,2.9,9.9c-4.5,6.7-12.3,11.3-19.9,13.4c-0.1,0.1-0.1,0.1-0.2,0.1c0.1,2.6,2.2,3.8,5.2,3.8
	c3,0,6.9-1.1,10.8-3.3c6.4-3.6,13-10.6,14.7-12.6c2.3-3.8,5.5-7,9.1-9.1c2.2-1.3,4.8-2.4,7.4-2.4c0.8,0,1.7,0.1,2.5,0.4
	c4.2,1.4,5.4,6.2,2.9,9.9C91,84.8,83.2,89.4,75.6,91.4c-0.1,0.1-0.1,0.1-0.2,0.1c0.1,2.6,2.2,3.8,5.2,3.8c3,0,6.9-1.1,10.8-3.3
	c6.8-3.8,13.7-11.4,14.9-12.9c0.1-0.2,0.3-0.3,0.4-0.4c0.1-0.3,0.2-0.6,0.2-0.9c5.9-26.2,11.1-40.5,19.8-69.2c0.4-1.4,1.5-2,2.6-2
	c1.7,0,3.4,1.4,2.7,3.6C126.5,28.7,120.4,46.9,115,67c-2,7.4-3.6,14.8-4.6,22.2c-0.8,6,0.8,8.4,3.7,8.4c5.4,0,15-8.4,19.5-16.9
	c0.1-0.2,0.2-0.3,0.3-0.4c0.9-3.9,2-7.5,2.8-9.9c0.5-1.2,1.4-2.1,2.7-2.1c0.3,0,0.5,0.1,0.8,0.1c1.3,0.4,2.5,2.1,2,3.6
	c-1.4,3.7-4.1,11.6-4.9,18.2c-0.7,5-0.4,8.1,1.7,8.1c1.1,0,2.7-0.8,4.9-2.5c4.1-3.8,8.3-7.7,11-13.3c0.7-4.7,1.8-9.2,2.7-12.5
	c2.7-11.3,6.5-22.3,10.5-33.1c-6.4,0.7-12.9,1.5-19.3,2.2c-0.1,0-0.1,0-0.2,0c-1.4,0-2.7-1.6-2.7-2.9c0-1.7,1.3-2.8,2.8-2.9
	l21.5-2.6c3.7-9.4,7.6-18.9,11.8-28.1C182.6,1.6,183.6,1.1,184.6,1.1z M77.3,84.8c2.4-0.9,4.6-2,6.8-3.5c1.3-0.9,2.5-1.9,3.7-2.9
	c1.2-1.3,2.7-2.5,3.5-4.1c0.1-0.2,0.2-0.5,0.3-0.7c-0.1,0-0.2,0-0.3,0c-0.3-0.1-0.6-0.1-1-0.1c-0.5,0-1.1,0.1-1.5,0.1
	c-2.3,0.7-4.5,2.2-6.3,3.9c-2.2,1.9-3.8,4.3-5.1,6.8C77.4,84.6,77.3,84.7,77.3,84.8z M44.7,84.8c2.4-0.9,4.6-2,6.8-3.5
	c1.3-0.9,2.5-1.9,3.7-2.9c1.2-1.3,2.7-2.5,3.5-4.1c0.1-0.2,0.2-0.5,0.3-0.7c-0.1,0-0.2,0-0.3,0c-0.3-0.1-0.6-0.1-1-0.1
	c-0.5,0-1.1,0.1-1.5,0.1c-2.3,0.7-4.5,2.2-6.3,3.9c-2.2,1.9-3.8,4.3-5.1,6.8C44.8,84.6,44.7,84.7,44.7,84.8z M8.4,128.5
	c1.1,0,2.7-1.8,4.6-6.4c2.1-4.7,3.5-9.7,4.5-14.7c0.9-4.7,2-9.6,1.8-14.5c-0.1-3.3-0.7-6.8-3.8-8.4c-0.5-0.3-0.8-0.8-1.1-1.3
	c-1.2,4.3-2.3,8.5-3.3,12.8c-1.6,6.8-3,13.7-4.1,20.5C5.8,122.4,6.4,128.5,8.4,128.5z M184.6,0c-1.5,0-2.8,0.8-3.4,2.1
	c-3.7,8.2-7.5,17.1-11.6,27.5l-20.9,2.5c-2.2,0.2-3.7,1.9-3.7,4c0,1.9,1.6,4,3.7,4c0.1,0,0.2,0,0.2,0h0.1c5.6-0.7,11.6-1.4,17.5-2.1
	c-3.4,9.3-7.2,20.3-9.9,31.6c-0.8,3.3-2,7.8-2.7,12.5c-2.7,5.5-7.1,9.5-10.7,12.8c-2.5,2-3.7,2.2-4.2,2.2c-0.3,0-0.4-0.1-0.5-0.2
	c-0.4-0.4-0.8-1.9-0.2-6.6c0,0,0,0,0-0.1c0.8-6.8,3.6-14.8,4.8-17.9c0.3-0.9,0.3-1.8-0.2-2.7c-0.5-1-1.4-2-2.4-2.3h-0.1
	c-0.4-0.1-0.7-0.2-1.1-0.2c-1.6,0-3,1.1-3.7,2.8c-0.9,2.7-2,6.2-2.8,9.8c-0.1,0.1-0.2,0.3-0.3,0.4c-4.4,8.3-13.6,16.4-18.6,16.4
	c-0.9,0-1.5-0.3-2-0.8c-0.6-0.8-1.3-2.5-0.7-6.3c1-6.8,2.5-14,4.6-22.1c3.6-13.4,7.5-26,11.4-38.2c1.9-6.1,3.9-12.4,5.8-18.7
	c0.4-1.2,0.2-2.4-0.5-3.3c-0.7-1-2-1.6-3.3-1.6c-1.7,0-3.1,1-3.6,2.7c-2,6.5-3.7,12-5.4,17.5c-5.7,18.2-9.8,31.4-14.2,51.8
	c-0.1,0.2-0.1,0.4-0.1,0.5c-0.1,0.1-0.2,0.2-0.3,0.3c-1.3,1.6-8.1,9-14.6,12.6c-3.6,2-7.3,3.2-10.3,3.2c-1.6,0-3.6-0.4-4.1-2
	c8.3-2.4,15.7-7.4,19.8-13.6c1.4-2.1,1.8-4.8,1.1-7.1c-0.7-2.2-2.3-3.8-4.6-4.5c-0.9-0.3-1.8-0.4-2.8-0.4c-2.4,0-4.9,0.8-7.9,2.6
	c-3.7,2.3-7.1,5.6-9.4,9.5c-0.7,0.8-7.5,8.5-14.3,12.3c-3.6,2-7.3,3.2-10.3,3.2c-1.6,0-3.6-0.4-4.1-2c8.3-2.4,15.7-7.4,19.8-13.6
	c1.4-2.1,1.8-4.8,1.1-7.1c-0.7-2.2-2.3-3.8-4.6-4.5c-0.9-0.3-1.8-0.4-2.8-0.4c-2.4,0-4.9,0.8-7.9,2.6c-3.5,2.1-6.6,5.1-8.9,8.6
	c-4,1.1-8,1.7-12,1.7c-3.6,0-7.3-0.5-10.8-1.4c-0.3-0.1-0.6-0.1-0.9-0.1c2.2-7.4,4.5-14.6,6.9-21.2c2.6-7.1,5.5-14.2,8.8-21.6
	c0,0,0,0,0-0.1c0.7-1.8,0.4-4.2-1.5-5.3c-0.6-0.4-1.3-0.5-2-0.5c-1.5,0-2.7,0.8-3.3,2.1C13.2,60.1,4.7,88.3,0.7,115.1
	c-1.4,9.3-0.7,16,2,19.3c1.2,1.4,2.6,2.1,4.3,2.1c5.9,0,12.4-8.5,15.1-19.9c0.2-0.9,0.4-1.8,0.7-2.6c1-3.9,2-7.6,2.5-11.6
	c0.6-4.1,1.1-8.5,0.5-13v-0.1l-0.1-0.3c-0.1-0.5-0.2-1.1-0.4-1.8c1.3,0.1,2.6,0.2,3.9,0.2c2.5,0,5.1-0.2,7.7-0.6
	c-0.1,0.4-0.2,0.9-0.3,1.3c-0.9,5.3,0.5,9.6,3.7,11.9c2.3,1.5,4.9,2.3,7.8,2.3c4.2,0,11.2-1.6,20.9-9.4c0.4,3.1,1.7,5.6,3.9,7.1
	c2.3,1.5,4.9,2.3,7.8,2.3c3.9,0,12-1.5,23.4-11.4c-0.1,1-0.1,2-0.2,2.8c-0.1,4.8,0.8,8.3,2.7,10.2c1.2,1.3,2.8,2,4.8,2
	c5.8,0,13.6-6,19.3-11.8c-0.1,3,0.3,5.3,1.1,7c1.2,2.8,3.4,4.2,6.2,4.2c4.2,0,8.5-3.1,9.8-4.1c1.8-1.5,3.6-3.2,5.3-5.1
	c0.3,2.4,0.8,4.3,1.7,5.9c1.2,2.4,3.3,4,5.5,4.4c0.4,0.1,0.8,0.1,1.2,0.1c2.4,0,5.1-1.4,8.4-4.2c5.1-4.2,11.5-12.3,15.3-18
	c1.3-1.8,1-4.3-0.6-5.5c-0.7-0.5-1.6-0.9-2.5-0.9c-1.2,0-2.3,0.5-2.9,1.4c-4.6,7-9.1,12.2-13.2,15.6c-2.1,1.6-3.2,1.9-3.6,1.9
	c-0.4,0-0.6-0.1-0.8-0.4c-0.5-0.7-1.3-2.6-0.5-8.9c0,0,0,0,0-0.1c0.5-5.1,1.4-10.2,2.8-15.8c2.7-11.2,6.5-22.2,9.9-31.4
	c0.5-1.2,0.9-2.4,1.3-3.6l30-3.4c0,0,0,0,0.1,0c2.2-0.3,3.7-1.9,3.7-4c0-1.9-1.5-4.1-3.6-4.1c-0.2,0-0.3,0-0.4,0.1l-26.5,3.1
	c2.7-7,5.7-14.3,9.6-22.7c0.9-2.1,0.4-4.3-1.4-5.4C186.1,0.2,185.4,0,184.6,0z M89,74.8c0.3-0.1,0.6-0.1,0.8-0.1
	c-0.5,0.7-1.2,1.4-1.9,2.1c-0.3,0.3-0.6,0.5-0.8,0.8c-1.1,0.9-2.3,2-3.5,2.8c-1.2,0.8-2.5,1.5-3.9,2.2c1.1-1.6,2.2-3,3.5-4.2
	c0,0,0,0,0.1-0.1C85,76.7,87.1,75.3,89,74.8z M56.4,74.8c0.3-0.1,0.6-0.1,0.8-0.1c-0.5,0.7-1.2,1.4-1.9,2.1
	c-0.3,0.3-0.6,0.5-0.8,0.8c-1.1,0.9-2.3,2-3.5,2.8c-1.2,0.8-2.5,1.5-3.9,2.2c1.1-1.6,2.2-3,3.5-4.2c0,0,0,0,0.1-0.1
	C52.4,76.7,54.5,75.3,56.4,74.8z M8.4,127.4c0,0-0.1-0.1-0.2-0.2c-0.9-1.3-1.2-5.8,0-10.3c0-0.1,0-0.1,0-0.1
	c1-6.4,2.4-13.1,4.1-20.5c0.8-3.7,1.7-7.3,2.7-10.9c0,0,0,0,0.1,0l0.1,0.1c2.1,1.1,3.1,3.4,3.2,7.5c0.1,4.5-0.7,9.1-1.8,14.2
	c-1.3,5.7-2.7,10.5-4.5,14.5C9.8,127.2,8.5,127.4,8.4,127.4z"/>
</svg>
